<svg xmlns="http://www.w3.org/2000/svg" xmlns:xlink="http://www.w3.org/1999/xlink" width="500" zoomAndPan="magnify" viewBox="0 0 375 374.999991" height="500" preserveAspectRatio="xMidYMid meet" version="1.0"><defs><g/><clipPath id="be89d8cdc8"><path d="M 46 78.40625 L 161 78.40625 L 161 296 L 46 296 Z M 46 78.40625 " clip-rule="nonzero"/></clipPath></defs><g clip-path="url(#be89d8cdc8)"><path fill="#000000" d="M 159.574219 221.261719 C 159.109375 220.246094 156.65625 215.085938 150.605469 213.433594 C 147.753906 212.65625 145.308594 212.878906 143.378906 213.40625 C 144.96875 212.832031 146.675781 211.828125 147.980469 210.28125 C 150.710938 207.046875 152.675781 201.203125 152.804688 194.285156 C 152.929688 187.367188 150.964844 179.050781 142.710938 173.59375 C 134.460938 168.132812 119.304688 169.414062 114.628906 175.4375 C 114.628906 175.4375 119.921875 170.992188 129.316406 170.925781 C 138.710938 170.863281 143.410156 175.054688 145.058594 176.578125 C 146.710938 178.101562 151.027344 183.433594 151.660156 189.082031 C 152.296875 194.730469 150.898438 203.234375 149.566406 206.03125 C 148.234375 208.824219 146.203125 212.441406 141.378906 212.949219 C 139.851562 213.109375 138.09375 212.792969 137.679688 210.238281 C 139.0625 210.023438 140.5 209.460938 142.078125 208.378906 C 144.933594 206.410156 146.457031 202.855469 146.074219 199.554688 C 145.695312 196.253906 143.601562 196.632812 141.441406 198.09375 C 139.285156 199.554688 137.253906 202.855469 137 207.773438 C 136.96875 208.347656 136.957031 208.855469 136.964844 209.316406 C 136.742188 209.367188 136.523438 209.414062 136.300781 209.457031 C 136.300781 209.457031 133.011719 209.160156 131.578125 207.976562 C 131.578125 207.976562 131.984375 209.710938 134.394531 210.15625 C 135.257812 210.3125 136.125 210.382812 137.007812 210.3125 C 137.210938 212.921875 138.125 213.382812 139.285156 213.835938 C 139.902344 214.078125 141.054688 214.054688 142.386719 213.710938 C 140.75 214.292969 139.597656 215.042969 139.050781 215.378906 C 137.824219 216.140625 130.417969 221.601562 127.753906 222.53125 C 125.085938 223.464844 121.660156 223.632812 119.414062 222.574219 C 117.171875 221.515625 114.167969 220.457031 113.238281 219.359375 C 112.308594 218.257812 111.078125 217.074219 111.332031 215.253906 C 111.585938 213.433594 111.839844 213.816406 112.515625 213.054688 C 113.195312 212.292969 114.082031 211.277344 111.839844 210.261719 C 111.839844 210.261719 113.152344 210.683594 114.378906 210.261719 C 115.605469 209.839844 115.605469 209.285156 115.691406 209.160156 C 115.777344 209.035156 115.945312 208.824219 115.945312 208.824219 C 115.945312 208.824219 115.351562 208.527344 114.632812 208.398438 C 113.914062 208.273438 113.070312 207.890625 112.308594 207.808594 C 111.546875 207.722656 110.570312 207.636719 109.976562 208.019531 C 109.386719 208.398438 108.199219 209.457031 108.199219 209.457031 C 108.199219 209.457031 107.820312 209.289062 108.582031 208.144531 C 108.703125 207.964844 108.796875 207.8125 108.878906 207.671875 C 108.972656 207.582031 109.046875 207.460938 109.085938 207.3125 C 109.351562 206.84375 109.441406 206.703125 109.851562 206.789062 C 110.445312 206.917969 110.445312 207.171875 111.035156 206.917969 C 111.628906 206.664062 111.882812 206.410156 112.222656 206.578125 C 112.558594 206.75 112.644531 207.171875 113.492188 207.382812 C 114.335938 207.59375 115.4375 207.847656 115.4375 207.847656 C 115.4375 207.847656 115.691406 207.636719 114.84375 207.425781 C 114 207.214844 113.109375 206.789062 112.8125 206.410156 C 112.515625 206.03125 112.050781 205.777344 111.460938 205.945312 C 110.867188 206.113281 111.035156 206.199219 110.613281 206.28125 C 110.191406 206.367188 110.191406 206.03125 109.765625 206.199219 C 109.621094 206.257812 109.398438 206.453125 109.160156 206.703125 C 109.160156 206.242188 109.085938 205.753906 109.070312 205.457031 C 109.042969 204.941406 108.925781 204.527344 108.8125 204.066406 C 108.699219 203.625 108.539062 203.175781 108.40625 202.722656 C 108.445312 202.636719 108.488281 202.554688 108.5625 202.507812 C 108.800781 202.335938 109.1875 202.550781 109.4375 202.679688 C 109.84375 202.894531 110.085938 203.355469 110.578125 203.160156 C 111.042969 202.976562 110.835938 202.078125 111.195312 202.03125 C 111.515625 201.988281 111.996094 202.492188 112.304688 202.605469 C 113.230469 202.9375 114.046875 202.457031 114.148438 201.457031 C 114.210938 200.847656 114.050781 200.296875 113.417969 200.117188 C 113.171875 200.046875 112.050781 200.140625 111.929688 199.929688 C 111.746094 199.601562 111.5 199.34375 111.15625 199.214844 C 109.890625 198.730469 108.585938 198.929688 107.988281 200.25 C 107.652344 200.992188 107.652344 201.714844 107.785156 202.441406 C 107.664062 202.582031 107.519531 202.664062 107.21875 202.550781 C 106.839844 202.410156 106.769531 202.125 106.691406 201.761719 C 106.46875 200.691406 106.925781 199.890625 107.453125 198.984375 C 107.613281 198.707031 107.878906 198.488281 108.089844 198.253906 C 109.019531 197.214844 110.296875 196.550781 110.363281 194.972656 C 110.394531 194.160156 109.585938 193.695312 108.878906 193.523438 C 107.90625 193.285156 106.574219 193.363281 105.648438 193.691406 C 105.582031 193.714844 105.457031 193.761719 105.328125 193.824219 C 105.367188 192.488281 105.269531 191.109375 105.367188 189.824219 C 105.492188 188.128906 105.492188 186.015625 106.71875 183.304688 C 107.460938 181.671875 108.074219 180.382812 108.53125 179.316406 C 110.078125 179.042969 111.472656 178.359375 112.621094 177.53125 C 114.464844 176.195312 115.289062 174.484375 115.605469 173.277344 C 115.832031 172.417969 116.445312 170.796875 116.78125 169.929688 C 117.988281 169.917969 118.90625 169.789062 119.625 168.707031 C 120.386719 167.5625 120.386719 166.675781 120.304688 165.660156 C 120.292969 165.523438 120.261719 165.320312 120.21875 165.070312 C 120.21875 165.070312 120.21875 165.074219 120.21875 165.074219 C 120.21875 165.074219 121.320312 162.570312 121.828125 161.851562 C 122.335938 161.128906 123.6875 159.394531 124.535156 158.464844 C 125.382812 157.535156 126.3125 156.390625 126.820312 155.25 C 127.328125 154.105469 128.683594 150.085938 128.976562 148.988281 C 129.160156 148.316406 129.226562 147.398438 129.253906 146.78125 C 129.320312 146.707031 129.359375 146.660156 129.359375 146.660156 C 129.359375 146.660156 131.007812 144.925781 132.195312 142.425781 C 133.378906 139.929688 133.128906 137.183594 133.128906 137.183594 C 133.21875 136.261719 133.253906 135.53125 133.253906 135.53125 C 133.253906 135.53125 134.269531 122.285156 133.507812 119.21875 C 132.746094 116.148438 130.289062 114.371094 126.988281 115.132812 C 123.6875 115.894531 123.097656 115.300781 117.679688 120.71875 C 112.261719 126.136719 106.847656 129.011719 104.054688 130.960938 C 101.261719 132.90625 92.121094 136.882812 89.664062 137.476562 C 88.363281 137.789062 85.691406 138.398438 82.84375 138.859375 C 83.363281 138.390625 83.917969 137.882812 84.441406 137.390625 C 85.402344 136.492188 87.164062 135.144531 89.441406 133.582031 C 89.453125 133.578125 91.371094 132.847656 94.214844 130.492188 C 94.277344 130.453125 94.335938 130.414062 94.398438 130.378906 C 94.816406 130.121094 95.242188 129.863281 95.675781 129.605469 C 96.011719 129.40625 96.375 129.179688 96.765625 128.929688 C 102.4375 125.289062 113.28125 116.65625 118.273438 108.023438 C 123.605469 98.796875 121.996094 90.929688 118.273438 86.1875 C 114.492188 81.378906 107.960938 78.894531 102.078125 80.730469 C 101.699219 80.847656 101.332031 80.980469 100.972656 81.125 C 98.941406 79.976562 96.707031 79.183594 94.40625 78.824219 C 94.40625 78.824219 84.84375 78.402344 75.195312 85.085938 C 65.546875 91.773438 61.820312 102.777344 60.550781 109.800781 C 60.003906 112.839844 60.019531 116.464844 60.347656 119.980469 C 58.324219 119.09375 55.957031 118.953125 53.527344 119.703125 C 47.773438 121.480469 45.570312 128.335938 47.519531 133.074219 C 49.464844 137.816406 55.304688 141.960938 60.722656 142.214844 C 65.917969 142.460938 67.84375 140.988281 70.535156 139.597656 C 71.40625 139.898438 72.339844 140.125 73.332031 140.269531 C 74.714844 140.46875 76.464844 140.46875 78.382812 140.332031 C 78.617188 140.761719 78.777344 141.210938 78.867188 141.671875 C 70.929688 150.109375 64.316406 159.96875 60.128906 166.25 C 55.050781 173.867188 49.972656 182.925781 48.28125 192.910156 C 46.585938 202.898438 49.042969 211.53125 51.328125 216.777344 C 53.613281 222.023438 61.734375 233.535156 65.632812 237.765625 C 69.53125 242 78.238281 253.085938 82.300781 259.433594 C 84.753906 263.269531 86.3125 268.273438 87.292969 272.515625 C 83.25 276.007812 82.667969 278.929688 82.046875 281.355469 C 81.203125 284.65625 79.507812 289.816406 82.472656 293.203125 C 85.433594 296.589844 87.464844 296.417969 88.816406 293.796875 C 90.171875 291.171875 89.75 284.484375 89.410156 280.167969 C 89.257812 278.207031 88.890625 275.613281 88.253906 272.753906 C 91.160156 270.453125 97.441406 267.757812 100.246094 266.796875 C 102.269531 266.105469 106.984375 264.503906 112.625 263.777344 C 112.503906 264.121094 112.394531 264.476562 112.304688 264.851562 C 111.417969 268.574219 111.796875 268.871094 112.007812 268.195312 C 112.140625 267.769531 112.675781 265.742188 113.578125 263.664062 C 116.632812 263.328125 119.921875 263.269531 123.179688 263.75 C 132.914062 265.1875 136.722656 264.511719 141.292969 261.042969 C 145.863281 257.570312 147.386719 250.96875 147.640625 247.164062 C 147.710938 246.070312 147.574219 244.84375 147.171875 243.582031 C 150.148438 241.921875 153.121094 239.925781 154.875 238.316406 C 157.414062 235.988281 160.800781 231.886719 160.671875 227.144531 C 160.546875 222.40625 160.039062 222.277344 159.574219 221.261719 Z M 138.015625 205.585938 C 138.511719 203.277344 139.59375 201 141.34375 199.378906 C 142.078125 198.695312 143.660156 197.433594 144.714844 198.136719 C 145.566406 198.710938 145.386719 200.1875 145.296875 201.070312 C 145.058594 203.398438 143.996094 205.523438 142.15625 206.996094 C 140.828125 208.0625 139.234375 208.730469 137.589844 209.160156 C 137.578125 208.210938 137.703125 207.035156 138.015625 205.585938 Z M 109.574219 199.363281 C 109.996094 199.316406 110.605469 199.390625 110.960938 199.566406 C 111.308594 199.742188 111.351562 200.148438 111.632812 200.371094 C 112.167969 200.800781 112.898438 200.207031 113.324219 200.824219 C 113.507812 201.085938 113.722656 201.757812 113.453125 202.027344 C 113.195312 202.285156 112.703125 202.085938 112.414062 201.992188 C 111.886719 201.828125 111.082031 201.300781 110.535156 201.625 C 110.207031 201.820312 110.488281 202.21875 110.335938 202.480469 C 110.117188 202.863281 109.519531 202.261719 109.332031 202.113281 C 108.949219 201.8125 108.632812 201.625 108.226562 201.925781 C 108.199219 201.75 108.179688 201.574219 108.179688 201.394531 C 108.179688 200.480469 108.546875 199.480469 109.574219 199.363281 Z M 106.261719 200.039062 C 106.046875 200.675781 105.835938 201.476562 106.125 202.136719 C 106.351562 202.644531 107.355469 203.445312 107.984375 203.269531 C 108.046875 203.492188 108.117188 203.714844 108.1875 203.941406 C 108.527344 205.039062 108.25 206.257812 108.589844 207.347656 C 108.332031 207.664062 108.09375 207.976562 107.949219 208.1875 C 107.566406 208.738281 107.566406 209.582031 107.652344 210.007812 C 107.734375 210.429688 107.734375 210.769531 108.074219 210.472656 C 108.414062 210.175781 108.371094 209.835938 109.511719 209.160156 C 110.65625 208.484375 110.824219 208.484375 111.96875 208.566406 C 113.109375 208.652344 113.152344 208.949219 113.789062 209.035156 C 114.421875 209.117188 115.054688 209.328125 115.054688 209.328125 C 115.054688 209.328125 114.71875 209.625 113.914062 209.710938 C 113.109375 209.792969 112.347656 209.5 111.882812 209.625 C 111.417969 209.753906 111.164062 209.964844 110.824219 210.300781 C 110.488281 210.640625 109.726562 210.597656 109.132812 210.8125 C 108.539062 211.023438 107.652344 211.488281 108.03125 211.742188 C 108.414062 211.996094 109.046875 211.867188 109.9375 211.402344 C 110.824219 210.9375 111.039062 210.683594 111.417969 210.683594 C 111.796875 210.683594 112.558594 211.277344 112.644531 211.65625 C 112.730469 212.039062 112.519531 212.292969 111.839844 212.925781 C 111.164062 213.5625 110.910156 214.40625 110.742188 215 C 110.570312 215.59375 110.699219 216.269531 110.699219 216.269531 C 110.699219 216.269531 109.554688 215.085938 108.371094 213.859375 C 107.1875 212.628906 104.519531 210.050781 103.886719 208.019531 C 103.25 205.988281 102.953125 204.292969 103.335938 202.558594 C 103.71875 200.824219 103.96875 199.46875 104.816406 199.003906 C 105.664062 198.539062 106.296875 198.792969 106.761719 198.707031 C 106.863281 198.691406 106.96875 198.652344 107.074219 198.605469 C 106.722656 199.035156 106.445312 199.503906 106.261719 200.039062 Z M 105.546875 194.285156 C 106.089844 194.226562 106.609375 194.058594 107.164062 194.03125 C 107.921875 193.992188 109.425781 193.757812 109.738281 194.699219 C 109.9375 195.3125 109.46875 195.902344 109.101562 196.324219 C 108.839844 196.628906 108.621094 196.964844 108.359375 197.273438 C 108.085938 197.597656 107.765625 197.875 107.46875 198.175781 C 107.203125 198.199219 106.800781 198.222656 106.257812 198.199219 C 105.15625 198.160156 104.816406 198.285156 104.648438 198.410156 C 104.648438 198.410156 105.027344 196.761719 105.242188 195.070312 C 105.269531 194.824219 105.289062 194.574219 105.304688 194.324219 C 105.398438 194.3125 105.488281 194.292969 105.546875 194.285156 Z M 116.253906 169.898438 C 115.886719 170.484375 115.351562 173.71875 113.765625 175.8125 C 112.691406 177.234375 110.742188 178.15625 108.863281 178.503906 C 109.007812 178.128906 109.128906 177.785156 109.21875 177.464844 C 109.597656 176.109375 109.894531 173.613281 108.753906 172.386719 C 108.753906 172.386719 110.824219 172.34375 112.222656 171.667969 C 113.617188 170.992188 113.789062 170.738281 114.082031 170.609375 C 114.378906 170.480469 115.59375 170.597656 115.691406 169.804688 C 115.699219 169.742188 115.691406 169.695312 115.683594 169.644531 C 115.847656 169.761719 116.03125 169.847656 116.253906 169.894531 C 116.253906 169.894531 116.253906 169.894531 116.253906 169.898438 Z M 114 169.890625 C 114 169.890625 112.011719 170.144531 110.824219 169.761719 C 110.824219 169.761719 110.953125 169.46875 111.757812 169 C 112.160156 168.769531 112.371094 168.460938 112.40625 168.023438 C 113.347656 168.109375 114.074219 168.214844 114.421875 168.324219 C 114.730469 168.417969 114.957031 168.910156 115.328125 169.324219 C 115.035156 169.308594 114.652344 169.457031 114.464844 169.550781 C 114.125 169.71875 114 169.890625 114 169.890625 Z M 128.046875 148.730469 C 128.046875 148.730469 127.710938 149.28125 127.203125 149.535156 C 126.695312 149.789062 125.507812 150.339844 123.988281 150.210938 C 122.464844 150.085938 121.660156 149.917969 121.660156 149.917969 C 121.660156 149.917969 121.660156 149.917969 121.871094 149.746094 C 122.082031 149.578125 122.589844 149.621094 123.394531 149.535156 C 124.199219 149.449219 125.46875 149.578125 126.820312 148.859375 C 127.320312 148.59375 127.792969 148.226562 128.195312 147.867188 Z M 130.332031 144.457031 C 129.613281 145.304688 127.835938 146.785156 126.269531 147.757812 C 124.707031 148.730469 123.265625 148.6875 122.464844 148.816406 C 121.660156 148.941406 121.234375 149.15625 120.601562 149.746094 C 119.964844 150.339844 119.964844 151.128906 119.964844 151.128906 C 119.964844 151.128906 120.261719 150.890625 120.644531 150.636719 C 121.023438 150.382812 121.402344 150.464844 121.996094 150.507812 C 122.589844 150.550781 123.5625 150.761719 125 150.804688 C 126.441406 150.847656 127.964844 149.832031 127.964844 149.832031 C 127.964844 149.832031 127.03125 152.199219 126.269531 154.273438 C 125.507812 156.347656 125.253906 156.347656 124.238281 157.492188 C 123.222656 158.632812 122.125 160.367188 120.9375 162.019531 C 120.140625 163.132812 120.089844 164.132812 120.144531 164.664062 C 119.808594 162.886719 119.066406 159.625 119.035156 158.675781 C 118.992188 157.492188 118.863281 153.554688 119.414062 151.3125 C 119.964844 149.070312 120.683594 147.757812 122.378906 146.785156 C 124.070312 145.8125 126.015625 144.921875 127.835938 143.992188 C 129.65625 143.0625 130.828125 142.3125 131.304688 141.75 C 131.433594 141.597656 131.566406 141.382812 131.691406 141.152344 C 131.773438 141.191406 131.863281 141.203125 131.964844 141.164062 C 131.445312 142.488281 130.757812 143.957031 130.332031 144.457031 Z M 131.984375 138.066406 L 131.652344 139.625 C 131.300781 140.421875 130.734375 141.292969 129.824219 141.960938 C 127.582031 143.609375 125.042969 143.992188 122.886719 145.347656 C 120.726562 146.699219 119.585938 148.054688 119.246094 149.324219 C 118.90625 150.59375 118.1875 154.910156 118.398438 156.984375 C 118.609375 159.054688 118.863281 161.425781 119.289062 163.585938 C 119.710938 165.742188 120.175781 166.96875 119.203125 168.238281 C 118.511719 169.140625 117.734375 169.378906 117.007812 169.351562 C 117.007812 169.351562 117.003906 169.351562 117.003906 169.351562 C 116.710938 169.339844 116.425781 169.285156 116.15625 169.210938 C 115.226562 168.957031 115.523438 167.605469 114.167969 167.5625 C 113.589844 167.542969 112.976562 167.535156 112.375 167.507812 C 112.320312 167.15625 112.203125 166.746094 112.011719 166.25 C 111.417969 164.726562 109.9375 163.839844 108.792969 163.878906 C 107.652344 163.921875 107.441406 164.640625 107.691406 165.488281 C 107.949219 166.335938 108.820312 167.8125 110.613281 167.902344 C 111.125 167.925781 111.609375 167.957031 112.054688 167.992188 C 112.078125 168.164062 112.09375 168.28125 112.09375 168.28125 C 112.09375 168.28125 111.925781 168.746094 111.078125 169.085938 C 110.230469 169.425781 110.148438 169.085938 109.300781 169.042969 C 108.453125 169 108.371094 169.296875 106.972656 169.128906 C 105.578125 168.960938 104.054688 168.28125 103.292969 168.027344 C 102.53125 167.773438 101.980469 168.324219 103.589844 169.128906 C 105.195312 169.933594 105.875 169.933594 107.101562 170.058594 C 108.328125 170.1875 109.300781 170.523438 110.019531 170.652344 C 110.738281 170.777344 110.78125 170.695312 110.910156 170.652344 C 111.035156 170.609375 113.109375 170.71875 113.109375 170.71875 C 113.109375 170.71875 111.882812 171.371094 110.65625 171.667969 C 109.429688 171.964844 108.496094 171.835938 107.820312 171.667969 C 107.144531 171.496094 106.929688 171.710938 107.355469 172.089844 C 107.777344 172.472656 108.878906 173.105469 109.132812 174.332031 C 109.386719 175.558594 109.175781 176.703125 108.835938 177.550781 C 108.613281 178.101562 108.359375 178.4375 108.207031 178.601562 C 107.546875 178.679688 106.910156 178.683594 106.339844 178.609375 C 103.980469 178.296875 100.753906 175.496094 99.484375 174.101562 C 98.273438 172.773438 96.3125 168.972656 92.296875 166.476562 C 91.578125 165.261719 90.320312 163.0625 89.792969 161.257812 C 89.199219 159.226562 89.664062 156.6875 90.003906 155.585938 C 90.34375 154.488281 92.289062 152.371094 93.980469 151.480469 C 95.675781 150.59375 98.214844 149.789062 99.90625 149.113281 C 100.113281 149.027344 100.328125 148.960938 100.539062 148.890625 C 101.007812 148.953125 101.988281 149.082031 102.148438 149.113281 C 102.359375 149.15625 104.140625 149.664062 105.832031 150.210938 C 107.523438 150.761719 110.105469 150.59375 110.105469 150.59375 C 109.5 151.863281 108.144531 152.476562 106.804688 152.667969 C 105.621094 152.835938 103.589844 152.75 101.472656 152.074219 C 99.355469 151.398438 98.257812 151.226562 98.171875 151.480469 C 98.085938 151.734375 98.933594 152.496094 100.035156 153.300781 C 101.132812 154.105469 102.699219 154.910156 105.40625 154.867188 C 108.117188 154.824219 109.386719 153.300781 109.386719 153.300781 C 109.175781 153.21875 107.652344 153.894531 105.875 153.9375 C 104.566406 153.96875 103.242188 153.859375 101.984375 153.476562 C 101.398438 153.296875 100.972656 153.066406 100.484375 152.726562 C 100.011719 152.398438 99.417969 152.234375 99.085938 151.722656 C 99.636719 151.675781 100.1875 152.101562 100.679688 152.308594 C 101.148438 152.503906 101.578125 152.691406 102.082031 152.808594 C 103.265625 153.082031 104.480469 153.371094 105.703125 153.300781 C 107.226562 153.21875 108.835938 152.667969 109.511719 151.988281 C 110.1875 151.3125 110.65625 150.550781 110.65625 150.550781 C 110.964844 150.515625 112.023438 150.34375 111.554688 149.820312 C 111.3125 149.550781 110.851562 149.71875 110.5625 149.792969 C 110.15625 149.890625 109.839844 149.882812 109.410156 149.835938 C 108.46875 149.730469 107.535156 149.542969 106.59375 149.449219 C 105.28125 149.324219 103.078125 148.519531 101.980469 148.476562 C 101.792969 148.472656 101.628906 148.480469 101.472656 148.496094 C 102.113281 148.144531 102.765625 147.773438 103.417969 147.417969 C 104.09375 147.054688 104.734375 146.617188 105.316406 146.121094 C 105.734375 145.765625 106.195312 145.476562 106.628906 145.144531 C 107.152344 144.746094 107.753906 144.03125 108.097656 143.472656 C 108.621094 142.636719 109.167969 141.773438 109.574219 140.871094 C 110.070312 139.765625 110.382812 138.585938 110.738281 137.433594 C 111.585938 134.683594 111.796875 131.761719 112.347656 130.28125 C 112.785156 129.109375 113.808594 128.085938 114.652344 127.199219 C 115.089844 126.738281 115.488281 126.285156 115.882812 125.800781 C 116.308594 125.28125 116.898438 124.976562 117.445312 124.625 C 118.132812 124.1875 118.714844 123.65625 119.464844 123.316406 C 120.9375 122.640625 122.570312 122.625 124.113281 123.085938 C 128.046875 124.273438 130.246094 127.699219 131.007812 128.96875 C 131.761719 130.222656 132.246094 134.550781 132.257812 134.667969 C 132.175781 135.800781 132.089844 136.933594 131.984375 138.066406 Z M 111.964844 167.488281 C 111.304688 167.449219 110.671875 167.386719 110.148438 167.265625 C 109.046875 167.011719 107.527344 165.023438 108.414062 164.304688 C 108.414062 164.304688 109.851562 164.09375 110.574219 164.726562 C 111.292969 165.363281 111.546875 166.207031 111.757812 166.714844 C 111.839844 166.917969 111.910156 167.210938 111.964844 167.488281 Z M 94.238281 137.050781 C 98.808594 135.273438 107.609375 130.28125 111.25 127.488281 C 114.886719 124.695312 122.757812 116.488281 125.210938 116.0625 C 127.019531 115.75 129.203125 115.691406 130.820312 116.691406 C 132.320312 117.617188 132.707031 119.429688 132.867188 121.050781 C 133.070312 123.109375 133.121094 125.222656 132.871094 127.300781 C 132.722656 128.535156 132.621094 129.738281 132.527344 130.945312 C 131.949219 129.40625 130.648438 126.414062 128.726562 124.738281 C 126.058594 122.410156 123.859375 122.070312 121.40625 122.15625 C 118.578125 122.253906 116.457031 124.527344 114.648438 126.414062 C 114.136719 126.953125 113.609375 127.398438 113.117188 127.964844 C 112.53125 128.648438 112.089844 129.425781 111.785156 130.269531 C 110.980469 132.484375 110.738281 134.90625 110.148438 137.183594 C 108.796875 142.4375 106.257812 144.882812 104.140625 146.234375 C 102.023438 147.589844 97.199219 149.15625 94.28125 150.464844 C 91.359375 151.777344 89.371094 153.9375 88.863281 158 C 88.511719 160.8125 89.90625 163.910156 90.851562 165.617188 C 86.960938 163.207031 84.972656 160.175781 83.425781 157.976562 C 81.777344 155.628906 80.507812 151.882812 80.355469 149.535156 C 80.203125 147.1875 80.355469 141.191406 80.355469 141.191406 C 80.574219 140.921875 80.695312 140.777344 80.695312 140.777344 C 80.695312 140.777344 81.046875 140.46875 81.578125 139.996094 C 86.367188 139.363281 91.472656 138.128906 94.238281 137.050781 Z M 79.476562 141.03125 C 79.394531 140.78125 79.296875 140.523438 79.183594 140.265625 C 79.558594 140.230469 79.941406 140.195312 80.324219 140.152344 C 80.039062 140.441406 79.757812 140.734375 79.476562 141.03125 Z M 104.394531 80.769531 C 110.742188 79.671875 117.765625 84.492188 120.050781 90.671875 C 122.335938 96.851562 119.796875 103.199219 117.34375 107.769531 C 114.886719 112.339844 107.863281 119.195312 102.195312 123.765625 C 100.945312 124.769531 99.375 125.949219 97.679688 127.175781 C 100.011719 124.644531 102.609375 121.183594 105.15625 116.484375 C 107.371094 112.402344 109.90625 108.457031 110.484375 103.773438 C 110.777344 101.402344 110.734375 99.019531 110.5 96.648438 C 110.085938 92.429688 108.617188 87.972656 105.707031 84.84375 C 104.511719 83.554688 103.132812 82.4375 101.632812 81.515625 C 102.484375 81.203125 103.394531 80.941406 104.394531 80.769531 Z M 64.617188 141.199219 C 60.722656 142.214844 51.730469 139.414062 49.296875 134.851562 C 46.863281 130.289062 46.671875 123.425781 54.289062 120.464844 C 56.457031 119.621094 58.597656 119.828125 60.429688 120.800781 C 60.890625 125.101562 61.796875 129.148438 62.667969 131.632812 C 63.15625 133.023438 63.824219 134.277344 64.664062 135.382812 C 64.480469 135.867188 64.28125 136.34375 64.109375 136.796875 C 64.109375 136.796875 64.476562 136.421875 64.90625 135.691406 C 66.117188 137.1875 67.660156 138.378906 69.515625 139.195312 C 67.964844 139.941406 66.367188 140.742188 64.617188 141.199219 Z M 61.285156 121.332031 C 62.078125 121.890625 62.796875 122.597656 63.410156 123.4375 C 65.589844 126.4375 65.828125 130.046875 65.183594 133.628906 C 65.144531 133.84375 65.09375 134.0625 65.03125 134.28125 C 64.414062 133.386719 63.894531 132.347656 63.515625 131.128906 C 62.660156 128.382812 61.777344 125.035156 61.285156 121.332031 Z M 75.703125 139.421875 C 74.613281 139.34375 73.40625 139.1875 72.175781 138.882812 C 74.53125 138.085938 76.703125 138.347656 77.742188 139.429688 C 77.011719 139.460938 76.320312 139.464844 75.703125 139.421875 Z M 78.703125 139.371094 C 77.984375 138.265625 76.863281 137.351562 75.195312 137.390625 C 73.734375 137.425781 72.34375 137.90625 70.945312 138.527344 C 68.898438 137.84375 66.890625 136.691406 65.382812 134.757812 C 66.066406 133.199219 66.648438 130.753906 65.96875 127.402344 C 65.308594 124.152344 63.53125 121.722656 61.167969 120.386719 C 60.625 115.53125 60.789062 110.109375 62.585938 104.636719 C 65.886719 94.566406 73.503906 84.242188 85.773438 81.195312 C 93.511719 79.273438 97.414062 79.941406 100.109375 81.507812 C 94.898438 84.011719 91.921875 89.367188 93.136719 95.328125 C 94.066406 99.898438 99.738281 100.488281 99.738281 100.488281 C 97.960938 100.152344 94.589844 98.09375 94.238281 96.34375 C 93.882812 94.59375 93.5625 91.09375 94.152344 88.640625 C 94.617188 86.714844 96.757812 83.652344 100.71875 81.886719 C 102 82.746094 103.027344 83.800781 104.140625 84.832031 C 106.113281 86.660156 107.453125 89.089844 108.390625 91.585938 C 108.910156 92.96875 109.03125 94.507812 109.3125 95.949219 C 109.851562 98.726562 109.625 101.375 109.457031 104.167969 C 109.308594 106.644531 108.128906 109.007812 107.15625 111.289062 C 106.441406 112.964844 105.644531 114.601562 104.765625 116.191406 C 102.972656 119.4375 100.859375 122.523438 98.386719 125.289062 C 96.859375 126.992188 94.929688 128.816406 93.25 130.320312 C 88.488281 133.636719 84.082031 136.542969 84.082031 136.542969 C 83.175781 137.363281 82.28125 138.210938 81.398438 139.078125 C 80.480469 139.207031 79.574219 139.304688 78.703125 139.371094 Z M 78.960938 142.882812 C 78.90625 144.726562 78.054688 146.652344 77.128906 148.144531 C 75.40625 150.933594 72.128906 152.152344 69.738281 154.363281 C 73.054688 150.113281 76.816406 145.492188 78.960938 142.882812 Z M 88.566406 279.320312 C 89.058594 282.625 89.117188 286.050781 88.917969 289.378906 C 88.839844 290.695312 89.011719 292.480469 88.050781 293.488281 C 87.03125 294.554688 85.453125 294.527344 84.335938 293.710938 C 81.675781 291.765625 81.542969 289.054688 82.050781 284.316406 C 82.558594 279.574219 85.183594 276.191406 87.210938 273.734375 C 87.296875 273.632812 87.394531 273.527344 87.5 273.421875 C 88.023438 275.824219 88.359375 277.921875 88.566406 279.320312 Z M 145.925781 251.222656 C 145.234375 254.210938 143.667969 257.355469 141.527344 259.601562 C 137.660156 263.65625 130.691406 263.746094 125.476562 263.382812 C 123.101562 263.21875 120.734375 262.816406 118.355469 262.734375 C 117.203125 262.691406 115.710938 262.695312 113.980469 262.796875 C 114.433594 261.863281 114.960938 260.960938 115.566406 260.238281 C 117.679688 257.699219 121.066406 255.074219 127.792969 252.113281 C 134.523438 249.148438 139.328125 247.320312 143.28125 245.554688 C 144.191406 245.148438 145.160156 244.667969 146.148438 244.140625 C 146.785156 246.445312 146.5 248.75 145.925781 251.222656 Z M 152.675781 239.121094 C 151.359375 240.1875 149.292969 241.605469 146.945312 242.933594 C 145.796875 239.984375 143.167969 236.914062 138.332031 234.890625 C 131.050781 231.84375 122.925781 231.757812 115.648438 235.226562 C 114.859375 235.605469 114.0625 236.007812 113.277344 236.433594 C 115.140625 231.527344 113.808594 228.175781 112.773438 225.324219 C 111.417969 221.601562 105.324219 213.730469 97.84375 216.523438 C 90.363281 219.316406 89.75 225.664062 90.175781 232.179688 C 90.597656 238.699219 93.476562 246.992188 94.492188 249.617188 C 95.507812 252.238281 98.214844 256.300781 98.214844 256.300781 C 98.214844 256.300781 94.746094 247.921875 93.050781 242.421875 C 91.359375 236.921875 91.191406 232.097656 91.359375 226.765625 C 91.53125 221.433594 95.589844 218.046875 98.976562 217.539062 C 102.363281 217.03125 106 218.214844 109.8125 222.617188 C 113.617188 227.019531 113.875 231.335938 111.925781 236.160156 C 111.738281 236.625 111.554688 237.089844 111.363281 237.5625 C 110.085938 238.382812 108.882812 239.308594 107.847656 240.394531 C 107.550781 240.710938 107.058594 241.140625 106.902344 241.566406 C 106.472656 242.734375 107.246094 244.023438 108.515625 243.519531 C 109.347656 243.1875 110.082031 242.128906 110.574219 241.40625 C 111.371094 240.257812 112.011719 239.179688 112.515625 238.160156 C 112.894531 237.964844 113.285156 237.753906 113.703125 237.511719 C 115.902344 236.246094 120.898438 232.6875 128.769531 233.621094 C 136.640625 234.550781 142.902344 237.683594 145.273438 242 C 145.546875 242.5 145.761719 242.992188 145.9375 243.488281 C 145.046875 243.964844 144.128906 244.421875 143.199219 244.835938 C 139.390625 246.527344 132.578125 249.195312 130.082031 250.25 C 127.582031 251.308594 120.472656 254.738281 118.148438 256.769531 C 116.261719 258.414062 114.1875 260.25 112.992188 262.863281 C 107.539062 263.28125 100.074219 264.667969 93.222656 268.488281 C 91.097656 269.675781 89.410156 270.804688 88.054688 271.882812 C 87.292969 268.691406 86.195312 265.226562 84.675781 261.972656 C 81.628906 255.457031 75.703125 247.839844 69.695312 241.238281 C 63.683594 234.636719 56.320312 222.957031 54.628906 219.996094 C 52.9375 217.03125 47.011719 206.453125 49.636719 191.894531 C 52.257812 177.339844 60.46875 167.519531 64.191406 161.851562 C 65.226562 160.273438 66.964844 157.945312 68.929688 155.40625 C 67.65625 157.496094 66.234375 161.902344 68.253906 166.082031 C 69.398438 168.449219 71.503906 169.832031 73.925781 170.652344 C 76.097656 171.386719 78.058594 171.816406 79.90625 173.234375 C 81.703125 174.613281 82.9375 176.363281 83.152344 178.691406 C 83.40625 181.484375 83.914062 183.347656 82.390625 184.871094 C 80.867188 186.394531 80.105469 187.070312 80.105469 187.070312 C 80.105469 187.070312 81.699219 186.734375 83.441406 184.277344 C 85.089844 181.957031 84.472656 178.234375 83.289062 175.84375 C 81.808594 172.84375 79.433594 171.070312 76.246094 169.976562 C 74.832031 169.492188 73.351562 169.371094 72.023438 168.613281 C 69.296875 167.0625 68.433594 163.945312 68.171875 161.003906 C 68.171875 161.003906 68.085938 156.601562 71.386719 154.148438 C 73.242188 152.769531 75.632812 151.503906 77.101562 149.675781 C 78.65625 147.746094 79.601562 145.289062 79.765625 142.808594 C 79.777344 142.601562 79.757812 142.3125 79.703125 141.980469 C 79.761719 141.910156 79.820312 141.839844 79.871094 141.777344 C 79.871094 141.777344 79.363281 146.425781 79.871094 150.234375 C 80.378906 154.042969 82.15625 157.40625 83.996094 160.316406 C 85.835938 163.226562 88.695312 165.339844 90.980469 166.609375 C 91.25 166.761719 91.535156 166.953125 91.824219 167.167969 C 92.515625 168.191406 95.09375 172.234375 95.847656 175.351562 C 96.691406 178.863281 95.71875 181.0625 93.433594 183.644531 C 91.148438 186.226562 87.214844 188.976562 85.222656 191.515625 C 83.234375 194.054688 82.8125 196.59375 83.277344 199.640625 C 83.742188 202.6875 86.238281 205.648438 87.171875 206.324219 C 88.101562 207.003906 90.175781 207.976562 90.175781 207.976562 L 89.117188 207.046875 C 89.117188 207.046875 86.621094 205.394531 85.222656 202.957031 C 83.828125 200.519531 83.828125 199.003906 83.828125 196.847656 C 83.828125 194.6875 85.773438 191.683594 87.085938 190.5 C 88.398438 189.3125 92.84375 185.589844 93.984375 184.320312 C 95.128906 183.050781 96.691406 181.316406 96.945312 178.398438 C 97.199219 175.476562 95.675781 172.597656 95 171.160156 C 94.667969 170.457031 94.226562 169.671875 93.785156 168.929688 C 95.34375 170.515625 96.835938 172.40625 97.691406 173.464844 C 99.070312 175.179688 102.851562 178.796875 105.578125 179.304688 C 106.296875 179.441406 107 179.46875 107.675781 179.421875 C 107.101562 180.4375 106.058594 182.40625 105.578125 184.109375 C 104.902344 186.519531 104.394531 189.90625 104.4375 191.554688 C 104.480469 193.207031 104.523438 194.011719 104.265625 195.957031 C 104.011719 197.902344 103.25 199.765625 102.828125 201.246094 C 102.40625 202.726562 102.277344 205.816406 102.957031 207.425781 C 103.632812 209.035156 103.84375 210.050781 106.765625 213.054688 C 109.683594 216.058594 110.320312 216.480469 111.082031 217.496094 C 111.84375 218.511719 111.882812 219.65625 114.085938 220.839844 C 116.285156 222.023438 118.273438 223.253906 121.066406 223.84375 C 123.859375 224.4375 126.824219 224.140625 128.769531 223.167969 C 130.714844 222.195312 134.398438 219.652344 136.300781 218.34375 C 138.207031 217.03125 141.378906 215.085938 143.960938 214.324219 C 146.542969 213.5625 149.378906 213.351562 152.253906 214.449219 C 155.132812 215.550781 158.476562 220.164062 159.535156 222.449219 C 160.59375 224.734375 159.789062 229.769531 158.898438 232.054688 C 158.007812 234.339844 154.664062 237.511719 152.675781 239.121094 Z M 110.746094 239.042969 C 110.394531 239.855469 110.015625 240.65625 109.578125 241.417969 C 109.398438 241.730469 109.101562 242.410156 108.78125 242.605469 C 108.050781 243.046875 107.316406 242.449219 107.59375 241.621094 C 107.824219 240.925781 108.804688 240.378906 109.304688 239.878906 C 109.542969 239.640625 110.050781 239.382812 110.746094 239.042969 Z M 119.160156 197.523438 C 120.496094 197.332031 121.699219 196.570312 123.035156 195.9375 C 123.644531 195.644531 124.195312 195.300781 124.847656 195.113281 C 125.199219 195.011719 125.988281 195.054688 126.203125 194.742188 C 123.449219 194.050781 121.65625 196.78125 119.035156 196.632812 C 117.894531 196.570312 115.101562 195.9375 115.925781 196.953125 C 115.925781 196.953125 117.828125 197.714844 119.160156 197.523438 Z M 119.160156 197.523438 " fill-opacity="1" fill-rule="nonzero"/></g><path stroke-linecap="butt" transform="matrix(0.75, 0, 0, 0.75, 155.626576, 170.344911)" fill="none" stroke-linejoin="miter" d="M 38.492693 21.149495 C 38.492693 21.185953 38.492693 21.222411 38.492693 21.253661 C 38.523943 21.336995 38.508318 21.394286 38.435401 21.430745 L 36.622901 22.748453 C 36.586443 22.779703 36.555193 22.800537 36.518735 22.800537 C 36.445818 22.800537 36.388526 22.764078 36.341651 22.691162 C 34.768734 20.524495 32.924984 18.75887 30.810401 17.389078 C 28.706234 16.008869 26.492692 15.066161 24.164567 14.555744 C 21.836442 14.040119 19.52915 13.977619 17.237483 14.383869 C 14.945816 14.784911 12.846858 15.685953 10.940608 17.081786 C 8.857274 18.618245 7.133316 20.493245 5.773941 22.691162 C 4.419774 24.894287 3.539566 27.274495 3.128107 29.836995 C 2.727066 32.331787 2.815607 34.826579 3.398941 37.326579 C 3.987482 39.816163 5.034357 42.102621 6.539566 44.185955 L 8.190608 42.977621 C 8.227066 42.941163 8.263524 42.925538 8.294774 42.925538 C 8.378108 42.925538 8.435399 42.961996 8.471858 43.029705 C 10.044774 45.196371 11.883316 46.972413 13.987483 48.347413 C 16.102067 49.717205 18.320817 50.659913 20.648942 51.180747 C 22.977067 51.691163 25.284359 51.743247 27.576026 51.342205 C 29.867692 50.941163 31.966651 50.040122 33.872901 48.644288 C 33.909359 48.60783 33.961443 48.592205 34.034359 48.592205 C 34.076026 48.592205 34.117693 48.60783 34.154151 48.644288 C 34.190609 48.717205 34.190609 48.769288 34.154151 48.805747 C 34.154151 48.847413 34.138526 48.88908 34.102068 48.925538 C 30.607276 51.45158 26.721859 52.711997 22.4354 52.711997 C 19.2479 52.711997 16.232275 51.998455 13.383316 50.57658 C 10.549983 49.144288 8.195816 47.128663 6.320816 44.524496 C 4.784357 42.394288 3.701024 40.055746 3.076024 37.514079 C 2.456232 34.961996 2.367691 32.383871 2.805191 29.779704 C 3.206232 27.175537 4.096857 24.753662 5.466649 22.503662 C 6.841649 20.248453 8.596858 18.35262 10.727066 16.810953 C 12.96665 15.191161 15.346858 14.092203 17.867692 13.508869 C 20.40415 12.920328 22.940609 12.826578 25.482275 13.227619 C 28.034359 13.628661 30.435401 14.503661 32.690609 15.847411 C 34.945818 17.180745 36.87811 18.94637 38.492693 21.149495 Z M 72.029154 21.149495 C 73.57082 23.316162 74.648945 25.675537 75.263529 28.222412 C 75.893737 30.764079 75.987487 33.336996 75.549987 35.941162 C 75.143737 38.545329 74.253112 40.977621 72.878112 43.23283 C 71.50832 45.488038 69.763528 47.383871 67.638528 48.925538 C 64.148945 51.45158 60.258319 52.711997 55.971861 52.711997 C 54.909361 52.711997 53.867694 52.63908 52.846861 52.498455 C 50.242694 52.092205 47.810402 51.206788 45.555193 49.836997 C 43.299985 48.461997 41.404152 46.685955 39.862485 44.524496 C 38.326026 42.394288 37.242693 40.055746 36.612485 37.514079 C 35.997901 34.961996 35.90936 32.383871 36.34686 29.779704 C 36.747901 27.175537 37.633318 24.753662 39.00311 22.503662 C 40.383318 20.248453 42.138527 18.35262 44.268735 16.810953 C 46.388527 15.227619 48.732277 14.133869 51.299986 13.534911 C 53.867694 12.925536 56.456236 12.826578 59.060403 13.227619 C 61.654153 13.628661 64.081236 14.519286 66.336445 15.899494 C 68.591653 17.279703 70.492695 19.029703 72.029154 21.149495 Z M 75.22707 35.889079 C 75.628112 33.394287 75.534362 30.899495 74.94582 28.409912 C 74.362487 25.91512 73.32082 23.623453 71.815612 21.54012 L 70.16457 22.748453 C 70.128112 22.779703 70.091653 22.800537 70.055195 22.800537 C 69.987487 22.800537 69.924987 22.764078 69.88332 22.691162 C 68.424987 20.63387 66.648945 18.904703 64.549986 17.498453 C 62.466653 16.081786 60.174986 15.102619 57.680194 14.555744 C 55.299986 14.003661 52.971861 13.946369 50.695819 14.383869 C 48.424985 14.821369 46.352069 15.722411 44.482277 17.081786 C 42.393735 18.618245 40.674985 20.493245 39.310401 22.691162 C 37.961443 24.894287 37.081235 27.274495 36.669776 29.836995 C 36.263526 32.331787 36.352068 34.826579 36.935401 37.326579 C 37.529151 39.816163 38.576026 42.102621 40.076026 44.185955 L 41.727068 42.977621 C 41.763527 42.941163 41.799985 42.925538 41.836443 42.925538 C 41.914568 42.925538 41.977068 42.961996 42.013527 43.029705 C 43.586443 45.196371 45.424985 46.972413 47.529152 48.347413 C 49.638527 49.717205 51.862486 50.659913 54.185402 51.180747 C 56.513528 51.691163 58.826028 51.743247 61.117695 51.342205 C 63.404153 50.941163 65.503111 50.040122 67.409362 48.644288 C 69.50832 47.102621 71.22707 45.238038 72.581237 43.04533 C 73.940612 40.842204 74.82082 38.456788 75.22707 35.889079 Z M 101.888531 13.618244 C 101.888531 13.691161 101.872906 13.758869 101.836447 13.831786 L 76.419779 51.836997 L 92.315613 51.836997 C 93.346863 51.836997 94.41978 51.581788 95.539572 51.071372 C 96.659364 50.555747 97.674989 49.85783 98.586447 48.977622 C 99.497905 48.092205 100.216655 47.123455 100.737489 46.066163 C 100.768739 45.95158 100.841655 45.930746 100.95103 46.01408 C 100.987489 46.01408 101.023947 46.050538 101.055197 46.118246 C 101.055197 46.154705 101.055197 46.191163 101.055197 46.227621 L 98.320822 52.10783 C 98.284364 52.144288 98.227072 52.159913 98.143739 52.159913 L 73.78957 52.159913 C 73.716654 52.159913 73.659362 52.144288 73.617695 52.10783 C 73.581237 52.034913 73.60207 51.961997 73.685404 51.894288 L 99.081239 13.883869 L 83.190613 13.883869 C 82.169779 13.883869 81.096862 14.154703 79.977071 14.691161 C 78.862487 15.217203 77.841654 15.915119 76.919779 16.784911 C 76.00832 17.644286 75.294779 18.607828 74.784362 19.670328 C 74.737487 19.743245 74.680195 19.779703 74.607279 19.779703 C 74.607279 19.779703 74.591654 19.75887 74.555195 19.72762 C 74.518737 19.72762 74.482279 19.685953 74.44582 19.60262 C 74.44582 19.57137 74.44582 19.534911 74.44582 19.498453 L 77.201029 13.670328 C 77.237487 13.597411 77.289571 13.560953 77.362487 13.560953 L 101.727072 13.560953 C 101.799989 13.560953 101.852072 13.581786 101.888531 13.618244 Z M 131.081241 13.560953 C 131.195824 13.560953 131.253116 13.618244 131.253116 13.722411 C 131.253116 13.831786 131.195824 13.883869 131.081241 13.883869 C 130.346866 13.883869 129.560407 14.154703 128.716657 14.691161 C 127.878116 15.217203 127.253116 15.868244 126.852074 16.639078 L 115.51874 36.654704 L 115.51874 49.196372 C 115.51874 49.925538 115.773948 50.555747 116.284365 51.071372 C 116.805198 51.581788 117.430198 51.836997 118.164573 51.836997 C 118.273948 51.836997 118.326032 51.894288 118.326032 51.998455 C 118.326032 52.10783 118.273948 52.159913 118.164573 52.159913 L 110.633323 52.159913 C 110.518739 52.159913 110.461448 52.10783 110.461448 51.998455 C 110.461448 51.894288 110.518739 51.836997 110.633323 51.836997 C 111.357281 51.836997 111.977073 51.581788 112.48749 51.071372 C 113.008323 50.555747 113.263531 49.925538 113.263531 49.196372 L 113.263531 36.654704 L 101.987489 16.639078 C 101.549989 15.868244 100.91978 15.217203 100.096864 14.691161 C 99.273947 14.154703 98.477072 13.883869 97.706239 13.883869 C 97.596864 13.883869 97.54478 13.831786 97.54478 13.722411 C 97.54478 13.618244 97.596864 13.560953 97.706239 13.560953 L 105.518739 13.560953 C 105.628114 13.560953 105.680197 13.618244 105.680197 13.722411 C 105.680197 13.831786 105.628114 13.883869 105.518739 13.883869 C 104.966656 13.847411 104.518739 14.055744 104.190614 14.503661 C 103.904156 15.014078 103.997906 15.670328 104.471864 16.477619 L 115.466656 35.941162 L 126.51874 16.425536 C 126.95624 15.654703 127.029157 15.014078 126.742699 14.503661 C 126.414574 14.055744 125.971865 13.847411 125.414574 13.883869 C 125.310407 13.883869 125.253115 13.831786 125.253115 13.722411 C 125.253115 13.618244 125.310407 13.560953 125.414574 13.560953 Z M 164.018743 21.149495 C 164.018743 21.185953 164.018743 21.222411 164.018743 21.253661 C 164.049993 21.336995 164.034368 21.394286 163.961451 21.430745 L 162.148951 22.748453 C 162.112493 22.779703 162.081243 22.800537 162.044784 22.800537 C 161.971868 22.800537 161.914576 22.764078 161.867701 22.691162 C 160.294784 20.524495 158.451034 18.75887 156.336451 17.389078 C 154.232284 16.008869 152.018742 15.066161 149.690617 14.555744 C 147.362492 14.040119 145.0552 13.977619 142.763533 14.383869 C 140.471866 14.784911 138.372908 15.685953 136.466658 17.081786 C 134.383324 18.618245 132.659366 20.493245 131.299991 22.691162 C 129.945824 24.894287 129.065616 27.274495 128.654157 29.836995 C 128.253116 32.331787 128.341657 34.826579 128.924991 37.326579 C 129.513532 39.816163 130.560407 42.102621 132.065616 44.185955 L 133.716658 42.977621 C 133.753116 42.941163 133.789574 42.925538 133.820824 42.925538 C 133.904158 42.925538 133.961449 42.961996 133.997908 43.029705 C 135.570824 45.196371 137.414575 46.972413 139.513533 48.347413 C 141.628116 49.717205 143.846867 50.659913 146.174992 51.180747 C 148.503117 51.691163 150.810409 51.743247 153.102076 51.342205 C 155.393742 50.941163 157.492701 50.040122 159.398951 48.644288 C 159.435409 48.60783 159.487493 48.592205 159.560409 48.592205 C 159.602076 48.592205 159.643743 48.60783 159.680201 48.644288 C 159.716659 48.717205 159.716659 48.769288 159.680201 48.805747 C 159.680201 48.847413 159.664576 48.88908 159.628118 48.925538 C 156.138534 51.45158 152.247909 52.711997 147.96145 52.711997 C 144.77395 52.711997 141.758325 51.998455 138.909366 50.57658 C 136.076033 49.144288 133.721866 47.128663 131.852074 44.524496 C 130.310407 42.394288 129.227074 40.055746 128.602074 37.514079 C 127.982282 34.961996 127.893741 32.383871 128.331241 29.779704 C 128.737491 27.175537 129.622907 24.753662 130.992699 22.503662 C 132.367699 20.248453 134.122908 18.35262 136.253116 16.810953 C 138.4927 15.191161 140.872908 14.092203 143.393742 13.508869 C 145.9302 12.920328 148.466659 12.826578 151.008325 13.227619 C 153.560409 13.628661 155.961451 14.503661 158.216659 15.847411 C 160.471868 17.180745 162.404159 18.94637 164.018743 21.149495 Z M 193.987495 13.560953 C 194.091662 13.560953 194.143745 13.618244 194.143745 13.722411 C 194.143745 13.831786 194.091662 13.883869 193.987495 13.883869 C 193.25312 13.883869 192.622911 14.144286 192.107286 14.665119 C 191.59687 15.175536 191.341661 15.795328 191.341661 16.529703 L 191.341661 39.071371 C 191.341661 41.566163 190.727078 43.85783 189.50312 45.930746 C 188.273953 47.998455 186.612494 49.654705 184.518744 50.899497 C 182.435411 52.144288 180.143744 52.76408 177.648952 52.76408 C 175.12291 52.76408 172.820827 52.144288 170.74791 50.899497 C 168.680202 49.654705 167.018743 47.998455 165.763535 45.930746 C 164.518743 43.85783 163.898951 41.550538 163.898951 39.019288 L 163.898951 16.529703 C 163.898951 15.795328 163.643743 15.175536 163.133326 14.665119 C 162.62291 14.144286 162.003118 13.883869 161.268743 13.883869 C 161.159368 13.883869 161.107284 13.831786 161.107284 13.722411 C 161.107284 13.618244 161.159368 13.560953 161.268743 13.560953 L 168.799993 13.560953 C 168.90416 13.560953 168.961452 13.618244 168.961452 13.722411 C 168.961452 13.831786 168.90416 13.883869 168.799993 13.883869 C 168.065618 13.883869 167.440618 14.144286 166.919785 14.665119 C 166.409368 15.175536 166.15416 15.795328 166.15416 16.529703 L 166.15416 39.019288 C 166.15416 41.326579 166.711451 43.415121 167.831243 45.284913 C 168.951035 47.159913 170.445827 48.654705 172.315618 49.769288 C 174.18541 50.88908 176.27916 51.45158 178.586452 51.45158 C 180.857286 51.45158 182.930203 50.88908 184.799994 49.769288 C 186.674994 48.654705 188.169786 47.159913 189.28437 45.284913 C 190.404161 43.415121 190.966661 41.342204 190.966661 39.071371 L 190.966661 16.529703 C 190.966661 15.795328 190.706245 15.175536 190.185411 14.665119 C 189.674995 14.144286 189.055203 13.883869 188.320828 13.883869 C 188.211453 13.883869 188.15937 13.831786 188.15937 13.722411 C 188.15937 13.618244 188.211453 13.560953 188.320828 13.560953 Z M 208.549996 33.081787 C 210.279163 33.081787 211.862496 33.514079 213.299996 34.373454 C 214.753121 35.232829 215.904163 36.383871 216.763538 37.836996 C 217.63333 39.284913 218.065621 40.894288 218.065621 42.654705 C 218.065621 44.409913 217.63333 46.003663 216.763538 47.435955 C 215.904163 48.868247 214.753121 50.01408 213.299996 50.873455 C 211.862496 51.73283 210.279163 52.159913 208.549996 52.159913 L 192.602078 52.159913 C 192.492703 52.159913 192.44062 52.10783 192.44062 51.998455 C 192.44062 51.894288 192.492703 51.836997 192.602078 51.836997 C 193.336453 51.836997 193.956245 51.581788 194.466662 51.071372 C 194.987495 50.555747 195.242703 49.925538 195.242703 49.196372 L 195.242703 16.529703 C 195.242703 15.795328 194.987495 15.175536 194.466662 14.665119 C 193.956245 14.144286 193.336453 13.883869 192.602078 13.883869 C 192.492703 13.883869 192.44062 13.831786 192.44062 13.722411 C 192.44062 13.618244 192.492703 13.560953 192.602078 13.560953 L 206.414579 13.560953 C 207.909371 13.529703 209.279163 13.878661 210.523954 14.613036 C 211.773954 15.342203 212.768746 16.326578 213.503121 17.550536 C 214.237496 18.774495 214.622913 20.144286 214.659371 21.644286 C 214.659371 23.185953 214.284371 24.566162 213.529163 25.795328 C 212.779163 27.019287 211.773954 28.00887 210.523954 28.75887 C 209.279163 29.514079 207.909371 29.889079 206.414579 29.889079 C 205.602079 29.889079 204.810412 29.779704 204.039579 29.566162 C 203.857287 29.529704 203.701037 29.514079 203.555204 29.514079 C 202.893745 29.514079 202.331245 29.743245 201.862495 30.19637 C 201.40937 30.654704 201.180204 31.19637 201.180204 31.82137 C 201.180204 32.477621 201.40937 33.034912 201.862495 33.498454 C 202.331245 33.956787 202.893745 34.185954 203.555204 34.185954 C 203.878121 34.185954 204.185412 34.128662 204.482287 34.024496 C 205.768746 33.399496 207.128121 33.081787 208.549996 33.081787 Z M 207.393746 51.836997 C 208.898954 51.836997 210.253121 51.425538 211.461454 50.602622 C 212.680204 49.769288 213.648955 48.659913 214.378121 47.274496 C 215.112496 45.878663 215.47708 44.336996 215.47708 42.654705 C 215.47708 41.118246 215.232288 39.649496 214.737496 38.253663 C 214.247913 36.857829 213.487496 35.711996 212.456246 34.816162 C 211.424996 33.920329 210.122913 33.472412 208.549996 33.472412 C 207.164579 33.472412 205.862496 33.764079 204.643746 34.347412 C 204.273954 34.498454 203.914579 34.571371 203.555204 34.571371 C 202.820829 34.571371 202.174995 34.310954 201.622912 33.779704 C 201.076037 33.243246 200.805204 32.592204 200.805204 31.82137 C 200.805204 31.086995 201.076037 30.456787 201.622912 29.930745 C 202.174995 29.394287 202.820829 29.123454 203.555204 29.123454 C 203.732287 29.123454 203.914579 29.139079 204.091662 29.175537 C 204.862496 29.399495 205.638537 29.514079 206.414579 29.514079 C 208.133329 29.514079 209.492704 28.795329 210.497913 27.363037 C 211.508329 25.930745 212.013538 24.024495 212.013538 21.644286 C 212.013538 20.211995 211.711454 18.909911 211.102079 17.738036 C 210.503121 16.566161 209.695829 15.628661 208.685413 14.930744 C 207.680204 14.232828 206.560412 13.883869 205.315621 13.883869 L 200.143745 13.883869 C 199.40937 13.883869 198.78437 14.144286 198.263537 14.665119 C 197.75312 15.175536 197.50312 15.795328 197.50312 16.529703 L 197.50312 49.196372 C 197.50312 49.925538 197.75312 50.555747 198.263537 51.071372 C 198.78437 51.581788 199.40937 51.836997 200.143745 51.836997 Z M 236.862498 34.508871 C 238.664581 35.430746 240.065623 36.623454 241.065623 38.092204 C 242.07604 39.560954 242.581248 41.118246 242.581248 42.76408 C 242.581248 44.597413 241.997915 46.274496 240.82604 47.79533 C 239.648956 49.321372 238.091664 50.529705 236.154164 51.42033 C 234.211456 52.316163 232.049997 52.76408 229.669789 52.76408 C 227.284372 52.76408 225.112497 52.316163 223.143747 51.42033 C 221.180205 50.529705 219.622913 49.321372 218.471872 47.79533 C 217.315621 46.274496 216.737496 44.597413 216.737496 42.76408 C 216.737496 42.691163 216.779163 42.63908 216.857288 42.602621 C 216.930205 42.555746 216.987496 42.57658 217.018746 42.654705 L 218.497913 43.758871 C 218.534372 43.790121 218.549997 43.847413 218.549997 43.92033 C 218.549997 45.456788 219.055205 46.873455 220.07083 48.159913 C 221.081247 49.441163 222.419788 50.467205 224.081247 51.23283 C 225.75833 52.003663 227.617705 52.38908 229.669789 52.38908 C 231.680206 52.38908 233.529164 52.003663 235.211456 51.23283 C 236.904164 50.467205 238.242706 49.441163 239.227081 48.159913 C 240.221873 46.873455 240.716665 45.456788 240.716665 43.92033 C 240.716665 42.488038 240.279165 41.139079 239.398956 39.878663 C 238.523956 38.613038 237.294789 37.597413 235.711456 36.831787 L 222.685413 30.118245 C 221.029163 29.232829 219.747913 28.113037 218.831247 26.75887 C 217.919788 25.399495 217.461455 23.951578 217.461455 22.409912 C 217.461455 20.691161 218.00833 19.118245 219.10208 17.685953 C 220.201038 16.253661 221.680205 15.118244 223.534372 14.274494 C 225.38333 13.435953 227.430205 13.014078 229.669789 13.014078 C 231.904164 13.014078 233.945831 13.435953 235.789581 14.274494 C 237.643748 15.118244 239.117706 16.253661 240.221873 17.685953 C 241.320831 19.118245 241.872915 20.691161 241.872915 22.409912 C 241.872915 22.493245 241.836456 22.550537 241.76354 22.586995 C 241.690623 22.623453 241.622915 22.623453 241.549998 22.586995 L 240.060415 21.430745 C 240.023956 21.394286 240.003123 21.336995 240.003123 21.253661 C 240.003123 19.831786 239.534373 18.519286 238.596873 17.310953 C 237.664581 16.092203 236.419789 15.128661 234.862498 14.420328 C 233.305206 13.706786 231.576039 13.347411 229.669789 13.347411 C 227.763539 13.347411 226.029164 13.706786 224.471872 14.420328 C 222.91458 15.128661 221.66458 16.092203 220.72708 17.310953 C 219.794788 18.519286 219.331247 19.831786 219.331247 21.253661 C 219.331247 22.545328 219.716663 23.764078 220.482288 24.920328 C 221.253122 26.076578 222.315622 27.019287 223.66458 27.753662 Z M 236.862498 34.508871 " stroke="#000000" stroke-width="1.374773" stroke-opacity="1" stroke-miterlimit="4"/><g fill="#000000" fill-opacity="1"><g transform="translate(155.626576, 209.344909)"><g><path d="M 28.875 -23.140625 C 28.875 -23.109375 28.875 -23.082031 28.875 -23.0625 C 28.90625 -23 28.890625 -22.957031 28.828125 -22.9375 L 27.46875 -21.9375 C 27.445312 -21.914062 27.421875 -21.90625 27.390625 -21.90625 C 27.335938 -21.90625 27.296875 -21.929688 27.265625 -21.984375 C 26.085938 -23.609375 24.707031 -24.9375 23.125 -25.96875 C 21.539062 -27 19.875 -27.707031 18.125 -28.09375 C 16.382812 -28.476562 14.65625 -28.519531 12.9375 -28.21875 C 11.21875 -27.914062 9.640625 -27.238281 8.203125 -26.1875 C 6.640625 -25.039062 5.347656 -23.640625 4.328125 -21.984375 C 3.316406 -20.335938 2.65625 -18.550781 2.34375 -16.625 C 2.039062 -14.75 2.109375 -12.875 2.546875 -11 C 2.992188 -9.132812 3.78125 -7.421875 4.90625 -5.859375 L 6.140625 -6.765625 C 6.171875 -6.796875 6.203125 -6.8125 6.234375 -6.8125 C 6.285156 -6.8125 6.328125 -6.78125 6.359375 -6.71875 C 7.535156 -5.101562 8.914062 -3.78125 10.5 -2.75 C 12.082031 -1.71875 13.742188 -1.007812 15.484375 -0.625 C 17.234375 -0.238281 18.96875 -0.195312 20.6875 -0.5 C 22.40625 -0.800781 23.976562 -1.472656 25.40625 -2.515625 C 25.4375 -2.546875 25.476562 -2.5625 25.53125 -2.5625 C 25.5625 -2.5625 25.585938 -2.546875 25.609375 -2.515625 C 25.640625 -2.460938 25.640625 -2.421875 25.609375 -2.390625 C 25.609375 -2.359375 25.597656 -2.332031 25.578125 -2.3125 C 22.960938 -0.414062 20.046875 0.53125 16.828125 0.53125 C 14.429688 0.53125 12.164062 -0.00390625 10.03125 -1.078125 C 7.90625 -2.148438 6.144531 -3.660156 4.75 -5.609375 C 3.59375 -7.203125 2.78125 -8.953125 2.3125 -10.859375 C 1.84375 -12.773438 1.773438 -14.710938 2.109375 -16.671875 C 2.410156 -18.617188 3.078125 -20.4375 4.109375 -22.125 C 5.140625 -23.820312 6.453125 -25.25 8.046875 -26.40625 C 9.722656 -27.613281 11.507812 -28.4375 13.40625 -28.875 C 15.300781 -29.3125 17.203125 -29.378906 19.109375 -29.078125 C 21.023438 -28.773438 22.828125 -28.117188 24.515625 -27.109375 C 26.210938 -26.109375 27.664062 -24.785156 28.875 -23.140625 Z M 28.875 -23.140625 "/></g></g></g><g fill="#000000" fill-opacity="1"><g transform="translate(180.781351, 209.344909)"><g><path d="M 28.875 -23.140625 C 30.03125 -21.515625 30.84375 -19.742188 31.3125 -17.828125 C 31.78125 -15.921875 31.847656 -13.992188 31.515625 -12.046875 C 31.210938 -10.085938 30.546875 -8.265625 29.515625 -6.578125 C 28.484375 -4.890625 27.171875 -3.46875 25.578125 -2.3125 C 22.960938 -0.414062 20.046875 0.53125 16.828125 0.53125 C 16.035156 0.53125 15.253906 0.476562 14.484375 0.375 C 12.523438 0.0703125 10.695312 -0.59375 9 -1.625 C 7.3125 -2.65625 5.894531 -3.984375 4.75 -5.609375 C 3.59375 -7.203125 2.78125 -8.953125 2.3125 -10.859375 C 1.84375 -12.773438 1.773438 -14.710938 2.109375 -16.671875 C 2.410156 -18.617188 3.078125 -20.4375 4.109375 -22.125 C 5.140625 -23.820312 6.453125 -25.25 8.046875 -26.40625 C 9.640625 -27.582031 11.398438 -28.394531 13.328125 -28.84375 C 15.253906 -29.300781 17.191406 -29.378906 19.140625 -29.078125 C 21.085938 -28.773438 22.90625 -28.109375 24.59375 -27.078125 C 26.289062 -26.046875 27.71875 -24.734375 28.875 -23.140625 Z M 31.265625 -12.09375 C 31.566406 -13.957031 31.5 -15.820312 31.0625 -17.6875 C 30.625 -19.5625 29.835938 -21.285156 28.703125 -22.859375 L 27.46875 -21.9375 C 27.445312 -21.914062 27.421875 -21.90625 27.390625 -21.90625 C 27.335938 -21.90625 27.296875 -21.929688 27.265625 -21.984375 C 26.160156 -23.523438 24.820312 -24.820312 23.25 -25.875 C 21.6875 -26.9375 19.972656 -27.675781 18.109375 -28.09375 C 16.316406 -28.5 14.566406 -28.535156 12.859375 -28.203125 C 11.160156 -27.878906 9.609375 -27.207031 8.203125 -26.1875 C 6.640625 -25.039062 5.347656 -23.640625 4.328125 -21.984375 C 3.316406 -20.335938 2.65625 -18.550781 2.34375 -16.625 C 2.039062 -14.75 2.109375 -12.875 2.546875 -11 C 2.992188 -9.132812 3.78125 -7.421875 4.90625 -5.859375 L 6.140625 -6.765625 C 6.171875 -6.796875 6.203125 -6.8125 6.234375 -6.8125 C 6.285156 -6.8125 6.328125 -6.78125 6.359375 -6.71875 C 7.535156 -5.101562 8.914062 -3.78125 10.5 -2.75 C 12.082031 -1.71875 13.742188 -1.007812 15.484375 -0.625 C 17.234375 -0.238281 18.96875 -0.195312 20.6875 -0.5 C 22.40625 -0.800781 23.976562 -1.472656 25.40625 -2.515625 C 26.976562 -3.671875 28.269531 -5.070312 29.28125 -6.71875 C 30.300781 -8.375 30.960938 -10.164062 31.265625 -12.09375 Z M 31.265625 -12.09375 "/></g></g></g><g fill="#000000" fill-opacity="1"><g transform="translate(209.771283, 209.344909)"><g><path d="M 22.28125 -28.796875 C 22.28125 -28.734375 22.265625 -28.675781 22.234375 -28.625 L 3.171875 -0.125 L 15.09375 -0.125 C 15.863281 -0.125 16.664062 -0.316406 17.5 -0.703125 C 18.34375 -1.085938 19.109375 -1.609375 19.796875 -2.265625 C 20.484375 -2.929688 21.019531 -3.660156 21.40625 -4.453125 C 21.4375 -4.535156 21.492188 -4.550781 21.578125 -4.5 C 21.597656 -4.5 21.625 -4.46875 21.65625 -4.40625 C 21.65625 -4.382812 21.65625 -4.359375 21.65625 -4.328125 L 19.59375 0.078125 C 19.5625 0.109375 19.519531 0.125 19.46875 0.125 L 1.203125 0.125 C 1.140625 0.125 1.097656 0.109375 1.078125 0.078125 C 1.046875 0.0234375 1.054688 -0.0234375 1.109375 -0.078125 L 20.171875 -28.59375 L 8.25 -28.59375 C 7.476562 -28.59375 6.671875 -28.390625 5.828125 -27.984375 C 4.992188 -27.585938 4.234375 -27.066406 3.546875 -26.421875 C 2.859375 -25.773438 2.320312 -25.050781 1.9375 -24.25 C 1.90625 -24.195312 1.863281 -24.171875 1.8125 -24.171875 C 1.8125 -24.171875 1.800781 -24.1875 1.78125 -24.21875 C 1.75 -24.21875 1.71875 -24.242188 1.6875 -24.296875 C 1.6875 -24.328125 1.6875 -24.351562 1.6875 -24.375 L 3.75 -28.75 C 3.78125 -28.800781 3.820312 -28.828125 3.875 -28.828125 L 22.15625 -28.828125 C 22.207031 -28.828125 22.25 -28.816406 22.28125 -28.796875 Z M 22.28125 -28.796875 "/></g></g></g><g fill="#000000" fill-opacity="1"><g transform="translate(228.492889, 209.344909)"><g><path d="M 25.453125 -28.828125 C 25.535156 -28.828125 25.578125 -28.785156 25.578125 -28.703125 C 25.578125 -28.628906 25.535156 -28.59375 25.453125 -28.59375 C 24.898438 -28.59375 24.304688 -28.390625 23.671875 -27.984375 C 23.046875 -27.585938 22.582031 -27.101562 22.28125 -26.53125 L 13.78125 -11.515625 L 13.78125 -2.109375 C 13.78125 -1.554688 13.972656 -1.085938 14.359375 -0.703125 C 14.742188 -0.316406 15.207031 -0.125 15.75 -0.125 C 15.832031 -0.125 15.875 -0.0820312 15.875 0 C 15.875 0.0820312 15.832031 0.125 15.75 0.125 L 10.109375 0.125 C 10.023438 0.125 9.984375 0.0820312 9.984375 0 C 9.984375 -0.0820312 10.023438 -0.125 10.109375 -0.125 C 10.660156 -0.125 11.128906 -0.316406 11.515625 -0.703125 C 11.898438 -1.085938 12.09375 -1.554688 12.09375 -2.109375 L 12.09375 -11.515625 L 3.625 -26.53125 C 3.300781 -27.101562 2.828125 -27.585938 2.203125 -27.984375 C 1.585938 -28.390625 0.988281 -28.59375 0.40625 -28.59375 C 0.320312 -28.59375 0.28125 -28.628906 0.28125 -28.703125 C 0.28125 -28.785156 0.320312 -28.828125 0.40625 -28.828125 L 6.265625 -28.828125 C 6.347656 -28.828125 6.390625 -28.785156 6.390625 -28.703125 C 6.390625 -28.628906 6.347656 -28.59375 6.265625 -28.59375 C 5.859375 -28.613281 5.53125 -28.457031 5.28125 -28.125 C 5.0625 -27.75 5.128906 -27.253906 5.484375 -26.640625 L 13.734375 -12.046875 L 22.03125 -26.6875 C 22.351562 -27.269531 22.40625 -27.75 22.1875 -28.125 C 21.945312 -28.457031 21.617188 -28.613281 21.203125 -28.59375 C 21.117188 -28.59375 21.078125 -28.628906 21.078125 -28.703125 C 21.078125 -28.785156 21.117188 -28.828125 21.203125 -28.828125 Z M 25.453125 -28.828125 "/></g></g></g><g fill="#000000" fill-opacity="1"><g transform="translate(249.771276, 209.344909)"><g><path d="M 28.875 -23.140625 C 28.875 -23.109375 28.875 -23.082031 28.875 -23.0625 C 28.90625 -23 28.890625 -22.957031 28.828125 -22.9375 L 27.46875 -21.9375 C 27.445312 -21.914062 27.421875 -21.90625 27.390625 -21.90625 C 27.335938 -21.90625 27.296875 -21.929688 27.265625 -21.984375 C 26.085938 -23.609375 24.707031 -24.9375 23.125 -25.96875 C 21.539062 -27 19.875 -27.707031 18.125 -28.09375 C 16.382812 -28.476562 14.65625 -28.519531 12.9375 -28.21875 C 11.21875 -27.914062 9.640625 -27.238281 8.203125 -26.1875 C 6.640625 -25.039062 5.347656 -23.640625 4.328125 -21.984375 C 3.316406 -20.335938 2.65625 -18.550781 2.34375 -16.625 C 2.039062 -14.75 2.109375 -12.875 2.546875 -11 C 2.992188 -9.132812 3.78125 -7.421875 4.90625 -5.859375 L 6.140625 -6.765625 C 6.171875 -6.796875 6.203125 -6.8125 6.234375 -6.8125 C 6.285156 -6.8125 6.328125 -6.78125 6.359375 -6.71875 C 7.535156 -5.101562 8.914062 -3.78125 10.5 -2.75 C 12.082031 -1.71875 13.742188 -1.007812 15.484375 -0.625 C 17.234375 -0.238281 18.96875 -0.195312 20.6875 -0.5 C 22.40625 -0.800781 23.976562 -1.472656 25.40625 -2.515625 C 25.4375 -2.546875 25.476562 -2.5625 25.53125 -2.5625 C 25.5625 -2.5625 25.585938 -2.546875 25.609375 -2.515625 C 25.640625 -2.460938 25.640625 -2.421875 25.609375 -2.390625 C 25.609375 -2.359375 25.597656 -2.332031 25.578125 -2.3125 C 22.960938 -0.414062 20.046875 0.53125 16.828125 0.53125 C 14.429688 0.53125 12.164062 -0.00390625 10.03125 -1.078125 C 7.90625 -2.148438 6.144531 -3.660156 4.75 -5.609375 C 3.59375 -7.203125 2.78125 -8.953125 2.3125 -10.859375 C 1.84375 -12.773438 1.773438 -14.710938 2.109375 -16.671875 C 2.410156 -18.617188 3.078125 -20.4375 4.109375 -22.125 C 5.140625 -23.820312 6.453125 -25.25 8.046875 -26.40625 C 9.722656 -27.613281 11.507812 -28.4375 13.40625 -28.875 C 15.300781 -29.3125 17.203125 -29.378906 19.109375 -29.078125 C 21.023438 -28.773438 22.828125 -28.117188 24.515625 -27.109375 C 26.210938 -26.109375 27.664062 -24.785156 28.875 -23.140625 Z M 28.875 -23.140625 "/></g></g></g><g fill="#000000" fill-opacity="1"><g transform="translate(274.926052, 209.344909)"><g><path d="M 26.1875 -28.828125 C 26.269531 -28.828125 26.3125 -28.785156 26.3125 -28.703125 C 26.3125 -28.628906 26.269531 -28.59375 26.1875 -28.59375 C 25.644531 -28.59375 25.179688 -28.398438 24.796875 -28.015625 C 24.410156 -27.628906 24.21875 -27.160156 24.21875 -26.609375 L 24.21875 -9.6875 C 24.21875 -7.820312 23.753906 -6.113281 22.828125 -4.5625 C 21.910156 -3.007812 20.664062 -1.765625 19.09375 -0.828125 C 17.53125 0.109375 15.8125 0.578125 13.9375 0.578125 C 12.039062 0.578125 10.316406 0.109375 8.765625 -0.828125 C 7.210938 -1.765625 5.96875 -3.007812 5.03125 -4.5625 C 4.09375 -6.113281 3.625 -7.835938 3.625 -9.734375 L 3.625 -26.609375 C 3.625 -27.160156 3.429688 -27.628906 3.046875 -28.015625 C 2.660156 -28.398438 2.195312 -28.59375 1.65625 -28.59375 C 1.570312 -28.59375 1.53125 -28.628906 1.53125 -28.703125 C 1.53125 -28.785156 1.570312 -28.828125 1.65625 -28.828125 L 7.296875 -28.828125 C 7.378906 -28.828125 7.421875 -28.785156 7.421875 -28.703125 C 7.421875 -28.628906 7.378906 -28.59375 7.296875 -28.59375 C 6.742188 -28.59375 6.273438 -28.398438 5.890625 -28.015625 C 5.515625 -27.628906 5.328125 -27.160156 5.328125 -26.609375 L 5.328125 -9.734375 C 5.328125 -8.003906 5.742188 -6.4375 6.578125 -5.03125 C 7.421875 -3.625 8.539062 -2.5 9.9375 -1.65625 C 11.34375 -0.820312 12.910156 -0.40625 14.640625 -0.40625 C 16.347656 -0.40625 17.898438 -0.820312 19.296875 -1.65625 C 20.703125 -2.5 21.820312 -3.625 22.65625 -5.03125 C 23.5 -6.4375 23.921875 -7.988281 23.921875 -9.6875 L 23.921875 -26.609375 C 23.921875 -27.160156 23.726562 -27.628906 23.34375 -28.015625 C 22.957031 -28.398438 22.488281 -28.59375 21.9375 -28.59375 C 21.863281 -28.59375 21.828125 -28.628906 21.828125 -28.703125 C 21.828125 -28.785156 21.863281 -28.828125 21.9375 -28.828125 Z M 26.1875 -28.828125 "/></g></g></g><g fill="#000000" fill-opacity="1"><g transform="translate(298.183867, 209.344909)"><g><path d="M 13.859375 -14.1875 C 15.148438 -14.1875 16.335938 -13.863281 17.421875 -13.21875 C 18.515625 -12.570312 19.382812 -11.707031 20.03125 -10.625 C 20.675781 -9.539062 21 -8.335938 21 -7.015625 C 21 -5.691406 20.675781 -4.492188 20.03125 -3.421875 C 19.382812 -2.347656 18.515625 -1.488281 17.421875 -0.84375 C 16.335938 -0.195312 15.148438 0.125 13.859375 0.125 L 1.890625 0.125 C 1.816406 0.125 1.78125 0.0820312 1.78125 0 C 1.78125 -0.0820312 1.816406 -0.125 1.890625 -0.125 C 2.441406 -0.125 2.910156 -0.316406 3.296875 -0.703125 C 3.679688 -1.085938 3.875 -1.554688 3.875 -2.109375 L 3.875 -26.609375 C 3.875 -27.160156 3.679688 -27.628906 3.296875 -28.015625 C 2.910156 -28.398438 2.441406 -28.59375 1.890625 -28.59375 C 1.816406 -28.59375 1.78125 -28.628906 1.78125 -28.703125 C 1.78125 -28.785156 1.816406 -28.828125 1.890625 -28.828125 L 12.25 -28.828125 C 13.375 -28.859375 14.40625 -28.597656 15.34375 -28.046875 C 16.28125 -27.492188 17.019531 -26.757812 17.5625 -25.84375 C 18.113281 -24.925781 18.40625 -23.898438 18.4375 -22.765625 C 18.4375 -21.609375 18.15625 -20.570312 17.59375 -19.65625 C 17.03125 -18.738281 16.28125 -17.992188 15.34375 -17.421875 C 14.40625 -16.859375 13.375 -16.578125 12.25 -16.578125 C 11.644531 -16.578125 11.054688 -16.660156 10.484375 -16.828125 C 10.335938 -16.859375 10.210938 -16.875 10.109375 -16.875 C 9.609375 -16.875 9.1875 -16.703125 8.84375 -16.359375 C 8.5 -16.015625 8.328125 -15.609375 8.328125 -15.140625 C 8.328125 -14.640625 8.5 -14.21875 8.84375 -13.875 C 9.1875 -13.53125 9.609375 -13.359375 10.109375 -13.359375 C 10.359375 -13.359375 10.59375 -13.398438 10.8125 -13.484375 C 11.769531 -13.953125 12.785156 -14.1875 13.859375 -14.1875 Z M 13 -0.125 C 14.125 -0.125 15.140625 -0.429688 16.046875 -1.046875 C 16.953125 -1.671875 17.679688 -2.503906 18.234375 -3.546875 C 18.785156 -4.585938 19.0625 -5.742188 19.0625 -7.015625 C 19.0625 -8.171875 18.875 -9.269531 18.5 -10.3125 C 18.125 -11.351562 17.550781 -12.210938 16.78125 -12.890625 C 16.019531 -13.566406 15.046875 -13.90625 13.859375 -13.90625 C 12.816406 -13.90625 11.84375 -13.679688 10.9375 -13.234375 C 10.65625 -13.128906 10.378906 -13.078125 10.109375 -13.078125 C 9.554688 -13.078125 9.070312 -13.273438 8.65625 -13.671875 C 8.25 -14.066406 8.046875 -14.554688 8.046875 -15.140625 C 8.046875 -15.691406 8.25 -16.164062 8.65625 -16.5625 C 9.070312 -16.957031 9.554688 -17.15625 10.109375 -17.15625 C 10.242188 -17.15625 10.378906 -17.144531 10.515625 -17.125 C 11.097656 -16.957031 11.675781 -16.875 12.25 -16.875 C 13.539062 -16.875 14.5625 -17.410156 15.3125 -18.484375 C 16.070312 -19.554688 16.453125 -20.984375 16.453125 -22.765625 C 16.453125 -23.835938 16.222656 -24.8125 15.765625 -25.6875 C 15.316406 -26.570312 14.710938 -27.273438 13.953125 -27.796875 C 13.203125 -28.328125 12.359375 -28.59375 11.421875 -28.59375 L 7.546875 -28.59375 C 6.992188 -28.59375 6.523438 -28.398438 6.140625 -28.015625 C 5.753906 -27.628906 5.5625 -27.160156 5.5625 -26.609375 L 5.5625 -2.109375 C 5.5625 -1.554688 5.753906 -1.085938 6.140625 -0.703125 C 6.523438 -0.316406 6.992188 -0.125 7.546875 -0.125 Z M 13 -0.125 "/></g></g></g><g fill="#000000" fill-opacity="1"><g transform="translate(316.328141, 209.344909)"><g><path d="M 16.953125 -13.125 C 18.296875 -12.4375 19.347656 -11.539062 20.109375 -10.4375 C 20.867188 -9.332031 21.25 -8.164062 21.25 -6.9375 C 21.25 -5.5625 20.804688 -4.300781 19.921875 -3.15625 C 19.046875 -2.007812 17.878906 -1.097656 16.421875 -0.421875 C 14.960938 0.242188 13.335938 0.578125 11.546875 0.578125 C 9.765625 0.578125 8.132812 0.242188 6.65625 -0.421875 C 5.1875 -1.097656 4.019531 -2.007812 3.15625 -3.15625 C 2.289062 -4.300781 1.859375 -5.5625 1.859375 -6.9375 C 1.859375 -6.988281 1.882812 -7.023438 1.9375 -7.046875 C 1.988281 -7.078125 2.03125 -7.066406 2.0625 -7.015625 L 3.171875 -6.1875 C 3.203125 -6.15625 3.21875 -6.113281 3.21875 -6.0625 C 3.21875 -4.90625 3.59375 -3.84375 4.34375 -2.875 C 5.101562 -1.914062 6.109375 -1.148438 7.359375 -0.578125 C 8.609375 -0.00390625 10.003906 0.28125 11.546875 0.28125 C 13.054688 0.28125 14.441406 -0.00390625 15.703125 -0.578125 C 16.972656 -1.148438 17.976562 -1.914062 18.71875 -2.875 C 19.46875 -3.84375 19.84375 -4.90625 19.84375 -6.0625 C 19.84375 -7.132812 19.507812 -8.144531 18.84375 -9.09375 C 18.1875 -10.039062 17.269531 -10.804688 16.09375 -11.390625 L 6.3125 -16.421875 C 5.070312 -17.078125 4.109375 -17.910156 3.421875 -18.921875 C 2.734375 -19.941406 2.390625 -21.03125 2.390625 -22.1875 C 2.390625 -23.476562 2.800781 -24.660156 3.625 -25.734375 C 4.457031 -26.804688 5.566406 -27.660156 6.953125 -28.296875 C 8.335938 -28.929688 9.867188 -29.25 11.546875 -29.25 C 13.222656 -29.25 14.753906 -28.929688 16.140625 -28.296875 C 17.535156 -27.660156 18.644531 -26.804688 19.46875 -25.734375 C 20.289062 -24.660156 20.703125 -23.476562 20.703125 -22.1875 C 20.703125 -22.132812 20.675781 -22.09375 20.625 -22.0625 C 20.570312 -22.039062 20.515625 -22.039062 20.453125 -22.0625 L 19.34375 -22.9375 C 19.320312 -22.957031 19.3125 -23 19.3125 -23.0625 C 19.3125 -24.132812 18.957031 -25.125 18.25 -26.03125 C 17.550781 -26.9375 16.613281 -27.65625 15.4375 -28.1875 C 14.269531 -28.726562 12.972656 -29 11.546875 -29 C 10.117188 -29 8.820312 -28.726562 7.65625 -28.1875 C 6.488281 -27.65625 5.550781 -26.9375 4.84375 -26.03125 C 4.144531 -25.125 3.796875 -24.132812 3.796875 -23.0625 C 3.796875 -22.09375 4.082031 -21.175781 4.65625 -20.3125 C 5.238281 -19.445312 6.035156 -18.738281 7.046875 -18.1875 Z M 16.953125 -13.125 "/></g></g></g><g fill="#000000" fill-opacity="1"><g transform="translate(167.025858, 226.004651)"><g><path d="M 4.65625 -6 L 5.4375 -6 L 5.4375 0 L 4.53125 0 L 1.46875 -4.84375 L 1.453125 -4.84375 L 1.453125 0 L 0.671875 0 L 0.671875 -6 L 1.625 -6 L 4.625 -1.15625 L 4.65625 -1.15625 Z M 4.65625 -6 "/></g></g></g><g fill="#000000" fill-opacity="1"><g transform="translate(175.202263, 226.004651)"><g><path d="M 5.359375 -6 L 5.359375 -2.109375 C 5.359375 -1.441406 5.144531 -0.894531 4.71875 -0.46875 C 4.300781 -0.0507812 3.707031 0.15625 2.9375 0.15625 C 2.21875 0.15625 1.65625 -0.0351562 1.25 -0.421875 C 0.84375 -0.816406 0.640625 -1.34375 0.640625 -2 L 0.640625 -6 L 1.4375 -6 L 1.4375 -2.21875 C 1.4375 -1.664062 1.570312 -1.25 1.84375 -0.96875 C 2.125 -0.695312 2.492188 -0.5625 2.953125 -0.5625 C 3.453125 -0.5625 3.835938 -0.695312 4.109375 -0.96875 C 4.390625 -1.25 4.53125 -1.660156 4.53125 -2.203125 L 4.53125 -6 Z M 5.359375 -6 "/></g></g></g><g fill="#000000" fill-opacity="1"><g transform="translate(183.252244, 226.004651)"><g><path d="M 1.484375 -3.265625 L 3.375 -3.265625 C 3.800781 -3.265625 4.109375 -3.351562 4.296875 -3.53125 C 4.492188 -3.707031 4.59375 -3.96875 4.59375 -4.3125 C 4.59375 -4.613281 4.507812 -4.851562 4.34375 -5.03125 C 4.175781 -5.21875 3.894531 -5.3125 3.5 -5.3125 L 1.484375 -5.3125 Z M 1.484375 0 L 0.671875 0 L 0.671875 -6 L 3.453125 -6 C 4.097656 -6 4.585938 -5.859375 4.921875 -5.578125 C 5.253906 -5.304688 5.421875 -4.910156 5.421875 -4.390625 C 5.421875 -4.046875 5.351562 -3.753906 5.21875 -3.515625 C 5.082031 -3.285156 4.875 -3.097656 4.59375 -2.953125 C 4.832031 -2.859375 5.003906 -2.726562 5.109375 -2.5625 C 5.222656 -2.40625 5.289062 -2.160156 5.3125 -1.828125 L 5.359375 -0.703125 C 5.367188 -0.515625 5.398438 -0.382812 5.453125 -0.3125 C 5.503906 -0.238281 5.578125 -0.179688 5.671875 -0.140625 L 5.671875 0 L 4.671875 0 C 4.617188 -0.144531 4.578125 -0.367188 4.546875 -0.671875 C 4.523438 -0.984375 4.515625 -1.257812 4.515625 -1.5 C 4.515625 -1.625 4.503906 -1.75 4.484375 -1.875 C 4.460938 -2.007812 4.414062 -2.128906 4.34375 -2.234375 C 4.269531 -2.335938 4.160156 -2.421875 4.015625 -2.484375 C 3.878906 -2.546875 3.691406 -2.578125 3.453125 -2.578125 L 1.484375 -2.578125 Z M 1.484375 0 "/></g></g></g><g fill="#000000" fill-opacity="1"><g transform="translate(191.285913, 226.004651)"><g><path d="M 2.125 -5.28125 L 0.109375 -5.28125 L 0.109375 -6 L 4.96875 -6 L 4.96875 -5.28125 L 2.9375 -5.28125 L 2.9375 0 L 2.125 0 Z M 2.125 -5.28125 "/></g></g></g><g fill="#000000" fill-opacity="1"><g transform="translate(198.430532, 226.004651)"><g><path d="M 5.359375 -6 L 5.359375 -2.109375 C 5.359375 -1.441406 5.144531 -0.894531 4.71875 -0.46875 C 4.300781 -0.0507812 3.707031 0.15625 2.9375 0.15625 C 2.21875 0.15625 1.65625 -0.0351562 1.25 -0.421875 C 0.84375 -0.816406 0.640625 -1.34375 0.640625 -2 L 0.640625 -6 L 1.4375 -6 L 1.4375 -2.21875 C 1.4375 -1.664062 1.570312 -1.25 1.84375 -0.96875 C 2.125 -0.695312 2.492188 -0.5625 2.953125 -0.5625 C 3.453125 -0.5625 3.835938 -0.695312 4.109375 -0.96875 C 4.390625 -1.25 4.53125 -1.660156 4.53125 -2.203125 L 4.53125 -6 Z M 5.359375 -6 "/></g></g></g><g fill="#000000" fill-opacity="1"><g transform="translate(206.480511, 226.004651)"><g><path d="M 1.484375 -3.265625 L 3.375 -3.265625 C 3.800781 -3.265625 4.109375 -3.351562 4.296875 -3.53125 C 4.492188 -3.707031 4.59375 -3.96875 4.59375 -4.3125 C 4.59375 -4.613281 4.507812 -4.851562 4.34375 -5.03125 C 4.175781 -5.21875 3.894531 -5.3125 3.5 -5.3125 L 1.484375 -5.3125 Z M 1.484375 0 L 0.671875 0 L 0.671875 -6 L 3.453125 -6 C 4.097656 -6 4.585938 -5.859375 4.921875 -5.578125 C 5.253906 -5.304688 5.421875 -4.910156 5.421875 -4.390625 C 5.421875 -4.046875 5.351562 -3.753906 5.21875 -3.515625 C 5.082031 -3.285156 4.875 -3.097656 4.59375 -2.953125 C 4.832031 -2.859375 5.003906 -2.726562 5.109375 -2.5625 C 5.222656 -2.40625 5.289062 -2.160156 5.3125 -1.828125 L 5.359375 -0.703125 C 5.367188 -0.515625 5.398438 -0.382812 5.453125 -0.3125 C 5.503906 -0.238281 5.578125 -0.179688 5.671875 -0.140625 L 5.671875 0 L 4.671875 0 C 4.617188 -0.144531 4.578125 -0.367188 4.546875 -0.671875 C 4.523438 -0.984375 4.515625 -1.257812 4.515625 -1.5 C 4.515625 -1.625 4.503906 -1.75 4.484375 -1.875 C 4.460938 -2.007812 4.414062 -2.128906 4.34375 -2.234375 C 4.269531 -2.335938 4.160156 -2.421875 4.015625 -2.484375 C 3.878906 -2.546875 3.691406 -2.578125 3.453125 -2.578125 L 1.484375 -2.578125 Z M 1.484375 0 "/></g></g></g><g fill="#000000" fill-opacity="1"><g transform="translate(214.514178, 226.004651)"><g><path d="M 1.484375 0 L 0.671875 0 L 0.671875 -6 L 1.484375 -6 Z M 1.484375 0 "/></g></g></g><g fill="#000000" fill-opacity="1"><g transform="translate(218.738803, 226.004651)"><g><path d="M 4.65625 -6 L 5.4375 -6 L 5.4375 0 L 4.53125 0 L 1.46875 -4.84375 L 1.453125 -4.84375 L 1.453125 0 L 0.671875 0 L 0.671875 -6 L 1.625 -6 L 4.625 -1.15625 L 4.65625 -1.15625 Z M 4.65625 -6 "/></g></g></g><g fill="#000000" fill-opacity="1"><g transform="translate(226.915207, 226.004651)"><g><path d="M 3.21875 -3.203125 L 5.859375 -3.203125 L 5.859375 0 L 5.328125 0 L 5.125 -0.78125 C 4.875 -0.445312 4.570312 -0.207031 4.21875 -0.0625 C 3.875 0.0820312 3.519531 0.15625 3.15625 0.15625 C 2.550781 0.15625 2.046875 0.0234375 1.640625 -0.234375 C 1.234375 -0.492188 0.921875 -0.851562 0.703125 -1.3125 C 0.484375 -1.78125 0.375 -2.359375 0.375 -3.046875 C 0.375 -3.910156 0.628906 -4.644531 1.140625 -5.25 C 1.648438 -5.851562 2.335938 -6.15625 3.203125 -6.15625 C 3.859375 -6.15625 4.425781 -5.972656 4.90625 -5.609375 C 5.382812 -5.253906 5.664062 -4.78125 5.75 -4.1875 L 4.96875 -4.1875 C 4.875 -4.570312 4.671875 -4.875 4.359375 -5.09375 C 4.054688 -5.320312 3.660156 -5.4375 3.171875 -5.4375 C 2.578125 -5.4375 2.097656 -5.210938 1.734375 -4.765625 C 1.378906 -4.328125 1.203125 -3.742188 1.203125 -3.015625 C 1.203125 -2.160156 1.378906 -1.53125 1.734375 -1.125 C 2.097656 -0.726562 2.585938 -0.53125 3.203125 -0.53125 C 3.597656 -0.53125 3.9375 -0.609375 4.21875 -0.765625 C 4.5 -0.929688 4.710938 -1.148438 4.859375 -1.421875 C 5.015625 -1.691406 5.09375 -2.054688 5.09375 -2.515625 L 3.21875 -2.515625 Z M 3.21875 -3.203125 "/></g></g></g><g fill="#000000" fill-opacity="1"><g transform="translate(235.426024, 226.004651)"><g/></g></g><g fill="#000000" fill-opacity="1"><g transform="translate(239.536459, 226.004651)"><g><path d="M 1.484375 -0.71875 L 4.53125 -0.71875 L 4.53125 0 L 0.671875 0 L 0.671875 -6 L 1.484375 -6 Z M 1.484375 -0.71875 "/></g></g></g><g fill="#000000" fill-opacity="1"><g transform="translate(246.252867, 226.004651)"><g><path d="M 1.484375 0 L 0.671875 0 L 0.671875 -6 L 1.484375 -6 Z M 1.484375 0 "/></g></g></g><g fill="#000000" fill-opacity="1"><g transform="translate(250.477492, 226.004651)"><g><path d="M 2.125 -5.28125 L 0.109375 -5.28125 L 0.109375 -6 L 4.96875 -6 L 4.96875 -5.28125 L 2.9375 -5.28125 L 2.9375 0 L 2.125 0 Z M 2.125 -5.28125 "/></g></g></g><g fill="#000000" fill-opacity="1"><g transform="translate(257.622116, 226.004651)"><g><path d="M 2.125 -5.28125 L 0.109375 -5.28125 L 0.109375 -6 L 4.96875 -6 L 4.96875 -5.28125 L 2.9375 -5.28125 L 2.9375 0 L 2.125 0 Z M 2.125 -5.28125 "/></g></g></g><g fill="#000000" fill-opacity="1"><g transform="translate(264.766734, 226.004651)"><g><path d="M 1.484375 -0.71875 L 4.53125 -0.71875 L 4.53125 0 L 0.671875 0 L 0.671875 -6 L 1.484375 -6 Z M 1.484375 -0.71875 "/></g></g></g><g fill="#000000" fill-opacity="1"><g transform="translate(271.483142, 226.004651)"><g><path d="M 5.109375 0 L 0.671875 0 L 0.671875 -6 L 5.046875 -6 L 5.046875 -5.28125 L 1.484375 -5.28125 L 1.484375 -3.4375 L 4.765625 -3.4375 L 4.765625 -2.734375 L 1.484375 -2.734375 L 1.484375 -0.71875 L 5.109375 -0.71875 Z M 5.109375 0 "/></g></g></g><g fill="#000000" fill-opacity="1"><g transform="translate(278.982564, 226.004651)"><g/></g></g><g fill="#000000" fill-opacity="1"><g transform="translate(283.092999, 226.004651)"><g><path d="M 5.640625 0 L 5.640625 -3.546875 C 5.640625 -3.585938 5.640625 -3.8125 5.640625 -4.21875 C 5.648438 -4.625 5.65625 -4.898438 5.65625 -5.046875 L 5.625 -5.046875 L 3.953125 0 L 3.15625 0 L 1.46875 -5.03125 L 1.4375 -5.03125 C 1.4375 -4.832031 1.441406 -4.546875 1.453125 -4.171875 C 1.460938 -3.796875 1.46875 -3.585938 1.46875 -3.546875 L 1.46875 0 L 0.671875 0 L 0.671875 -6 L 1.84375 -6 L 3.546875 -0.921875 L 3.5625 -0.921875 L 5.265625 -6 L 6.421875 -6 L 6.421875 0 Z M 5.640625 0 "/></g></g></g><g fill="#000000" fill-opacity="1"><g transform="translate(292.264485, 226.004651)"><g><path d="M 1.484375 0 L 0.671875 0 L 0.671875 -6 L 1.484375 -6 Z M 1.484375 0 "/></g></g></g><g fill="#000000" fill-opacity="1"><g transform="translate(296.48911, 226.004651)"><g><path d="M 4.65625 -6 L 5.4375 -6 L 5.4375 0 L 4.53125 0 L 1.46875 -4.84375 L 1.453125 -4.84375 L 1.453125 0 L 0.671875 0 L 0.671875 -6 L 1.625 -6 L 4.625 -1.15625 L 4.65625 -1.15625 Z M 4.65625 -6 "/></g></g></g><g fill="#000000" fill-opacity="1"><g transform="translate(304.665514, 226.004651)"><g><path d="M 1.484375 -0.6875 L 3.0625 -0.6875 C 3.601562 -0.6875 4.023438 -0.894531 4.328125 -1.3125 C 4.640625 -1.738281 4.796875 -2.3125 4.796875 -3.03125 C 4.796875 -3.75 4.640625 -4.304688 4.328125 -4.703125 C 4.023438 -5.097656 3.578125 -5.300781 2.984375 -5.3125 L 1.484375 -5.3125 Z M 0.671875 -6 L 3.109375 -6 C 3.898438 -6 4.515625 -5.726562 4.953125 -5.1875 C 5.398438 -4.644531 5.625 -3.941406 5.625 -3.078125 C 5.625 -2.160156 5.398438 -1.414062 4.953125 -0.84375 C 4.515625 -0.28125 3.890625 0 3.078125 0 L 0.671875 0 Z M 0.671875 -6 "/></g></g></g><g fill="#000000" fill-opacity="1"><g transform="translate(312.752197, 226.004651)"><g><path d="M 4.21875 -4.25 C 4.195312 -4.625 4.050781 -4.921875 3.78125 -5.140625 C 3.519531 -5.359375 3.171875 -5.46875 2.734375 -5.46875 C 2.285156 -5.46875 1.941406 -5.375 1.703125 -5.1875 C 1.472656 -5.007812 1.359375 -4.75 1.359375 -4.40625 C 1.359375 -4.226562 1.410156 -4.070312 1.515625 -3.9375 C 1.617188 -3.8125 1.800781 -3.71875 2.0625 -3.65625 L 3.78125 -3.265625 C 4.238281 -3.160156 4.578125 -2.96875 4.796875 -2.6875 C 5.023438 -2.40625 5.140625 -2.0625 5.140625 -1.65625 C 5.140625 -1.0625 4.921875 -0.609375 4.484375 -0.296875 C 4.054688 0.00390625 3.492188 0.15625 2.796875 0.15625 C 2.265625 0.15625 1.84375 0.0859375 1.53125 -0.046875 C 1.226562 -0.179688 0.957031 -0.394531 0.71875 -0.6875 C 0.488281 -0.988281 0.375 -1.40625 0.375 -1.9375 L 1.125 -1.9375 C 1.125 -1.488281 1.269531 -1.140625 1.5625 -0.890625 C 1.863281 -0.648438 2.269531 -0.53125 2.78125 -0.53125 C 3.28125 -0.53125 3.664062 -0.617188 3.9375 -0.796875 C 4.21875 -0.972656 4.359375 -1.222656 4.359375 -1.546875 C 4.359375 -1.835938 4.273438 -2.054688 4.109375 -2.203125 C 3.941406 -2.347656 3.617188 -2.476562 3.140625 -2.59375 L 1.84375 -2.890625 C 1.414062 -2.992188 1.09375 -3.164062 0.875 -3.40625 C 0.664062 -3.644531 0.5625 -3.945312 0.5625 -4.3125 C 0.5625 -4.84375 0.742188 -5.28125 1.109375 -5.625 C 1.472656 -5.976562 1.976562 -6.15625 2.625 -6.15625 C 3.363281 -6.15625 3.929688 -6 4.328125 -5.6875 C 4.734375 -5.382812 4.945312 -4.90625 4.96875 -4.25 Z M 4.21875 -4.25 "/></g></g></g></svg>