<svg xmlns="http://www.w3.org/2000/svg" xmlns:xlink="http://www.w3.org/1999/xlink" width="500" zoomAndPan="magnify" viewBox="0 0 375 374.999991" height="500" preserveAspectRatio="xMidYMid meet" version="1.0"><defs><g/><clipPath id="4af3cb1d80"><path d="M 131 78.40625 L 245 78.40625 L 245 296 L 131 296 Z M 131 78.40625 " clip-rule="nonzero"/></clipPath></defs><g clip-path="url(#4af3cb1d80)"><path fill="#000000" d="M 243.886719 221.261719 C 243.421875 220.246094 240.96875 215.085938 234.914062 213.433594 C 232.066406 212.65625 229.621094 212.878906 227.691406 213.40625 C 229.28125 212.832031 230.988281 211.828125 232.292969 210.28125 C 235.023438 207.046875 236.988281 201.203125 237.117188 194.285156 C 237.242188 187.367188 235.273438 179.050781 227.023438 173.59375 C 218.773438 168.132812 203.613281 169.414062 198.941406 175.4375 C 198.941406 175.4375 204.234375 170.992188 213.628906 170.925781 C 223.023438 170.863281 227.722656 175.054688 229.371094 176.578125 C 231.023438 178.101562 235.339844 183.433594 235.972656 189.082031 C 236.609375 194.730469 235.210938 203.234375 233.878906 206.03125 C 232.546875 208.824219 230.515625 212.441406 225.691406 212.949219 C 224.164062 213.109375 222.40625 212.792969 221.992188 210.238281 C 223.371094 210.023438 224.8125 209.460938 226.386719 208.378906 C 229.246094 206.410156 230.769531 202.855469 230.386719 199.554688 C 230.007812 196.253906 227.910156 196.632812 225.753906 198.09375 C 223.597656 199.554688 221.566406 202.855469 221.308594 207.773438 C 221.28125 208.347656 221.269531 208.855469 221.277344 209.316406 C 221.054688 209.367188 220.832031 209.414062 220.613281 209.457031 C 220.613281 209.457031 217.324219 209.160156 215.890625 207.976562 C 215.890625 207.976562 216.296875 209.710938 218.707031 210.15625 C 219.570312 210.3125 220.433594 210.382812 221.320312 210.3125 C 221.523438 212.921875 222.4375 213.382812 223.597656 213.835938 C 224.210938 214.078125 225.367188 214.054688 226.699219 213.710938 C 225.0625 214.292969 223.910156 215.042969 223.363281 215.378906 C 222.136719 216.140625 214.730469 221.601562 212.0625 222.53125 C 209.398438 223.464844 205.96875 223.632812 203.726562 222.574219 C 201.484375 221.515625 198.480469 220.457031 197.550781 219.359375 C 196.617188 218.257812 195.390625 217.074219 195.644531 215.253906 C 195.898438 213.433594 196.152344 213.816406 196.828125 213.054688 C 197.507812 212.292969 198.394531 211.277344 196.152344 210.261719 C 196.152344 210.261719 197.464844 210.683594 198.691406 210.261719 C 199.917969 209.839844 199.917969 209.285156 200.003906 209.160156 C 200.089844 209.035156 200.257812 208.824219 200.257812 208.824219 C 200.257812 208.824219 199.664062 208.527344 198.945312 208.398438 C 198.226562 208.273438 197.378906 207.890625 196.617188 207.808594 C 195.855469 207.722656 194.882812 207.636719 194.289062 208.019531 C 193.699219 208.398438 192.511719 209.457031 192.511719 209.457031 C 192.511719 209.457031 192.132812 209.289062 192.894531 208.144531 C 193.011719 207.964844 193.105469 207.8125 193.191406 207.671875 C 193.285156 207.582031 193.355469 207.460938 193.398438 207.3125 C 193.664062 206.84375 193.753906 206.703125 194.164062 206.789062 C 194.757812 206.917969 194.757812 207.171875 195.347656 206.917969 C 195.941406 206.664062 196.195312 206.410156 196.535156 206.578125 C 196.871094 206.75 196.957031 207.171875 197.804688 207.382812 C 198.648438 207.59375 199.75 207.847656 199.75 207.847656 C 199.75 207.847656 200.003906 207.636719 199.15625 207.425781 C 198.3125 207.214844 197.421875 206.789062 197.125 206.410156 C 196.828125 206.03125 196.363281 205.777344 195.773438 205.945312 C 195.179688 206.113281 195.347656 206.199219 194.925781 206.28125 C 194.503906 206.367188 194.503906 206.03125 194.078125 206.199219 C 193.933594 206.257812 193.710938 206.453125 193.472656 206.703125 C 193.472656 206.242188 193.398438 205.753906 193.382812 205.457031 C 193.355469 204.941406 193.238281 204.527344 193.125 204.066406 C 193.011719 203.625 192.851562 203.175781 192.71875 202.722656 C 192.757812 202.636719 192.800781 202.554688 192.871094 202.507812 C 193.113281 202.335938 193.496094 202.550781 193.746094 202.679688 C 194.15625 202.894531 194.398438 203.355469 194.890625 203.160156 C 195.355469 202.976562 195.148438 202.078125 195.507812 202.03125 C 195.828125 201.988281 196.308594 202.492188 196.617188 202.605469 C 197.542969 202.9375 198.359375 202.457031 198.460938 201.457031 C 198.523438 200.847656 198.363281 200.296875 197.726562 200.117188 C 197.484375 200.046875 196.359375 200.140625 196.242188 199.929688 C 196.058594 199.601562 195.808594 199.34375 195.46875 199.214844 C 194.203125 198.730469 192.898438 198.929688 192.300781 200.25 C 191.964844 200.992188 191.964844 201.714844 192.097656 202.441406 C 191.976562 202.582031 191.832031 202.664062 191.53125 202.550781 C 191.148438 202.410156 191.082031 202.125 191.003906 201.761719 C 190.78125 200.691406 191.238281 199.890625 191.765625 198.984375 C 191.925781 198.707031 192.191406 198.488281 192.402344 198.253906 C 193.332031 197.214844 194.609375 196.550781 194.675781 194.972656 C 194.707031 194.160156 193.898438 193.695312 193.191406 193.523438 C 192.21875 193.285156 190.886719 193.363281 189.960938 193.691406 C 189.894531 193.714844 189.765625 193.761719 189.640625 193.824219 C 189.679688 192.488281 189.582031 191.109375 189.679688 189.824219 C 189.804688 188.128906 189.804688 186.015625 191.03125 183.304688 C 191.773438 181.671875 192.386719 180.382812 192.839844 179.316406 C 194.390625 179.042969 195.785156 178.359375 196.933594 177.53125 C 198.777344 176.195312 199.601562 174.484375 199.917969 173.277344 C 200.144531 172.417969 200.757812 170.796875 201.09375 169.929688 C 202.300781 169.917969 203.214844 169.789062 203.9375 168.707031 C 204.699219 167.5625 204.699219 166.675781 204.613281 165.660156 C 204.605469 165.523438 204.574219 165.320312 204.53125 165.070312 C 204.53125 165.070312 204.53125 165.074219 204.53125 165.074219 C 204.53125 165.074219 205.632812 162.570312 206.136719 161.851562 C 206.648438 161.128906 208 159.394531 208.847656 158.464844 C 209.695312 157.535156 210.625 156.390625 211.132812 155.25 C 211.640625 154.105469 212.992188 150.085938 213.289062 148.988281 C 213.46875 148.316406 213.539062 147.398438 213.566406 146.78125 C 213.632812 146.707031 213.671875 146.660156 213.671875 146.660156 C 213.671875 146.660156 215.320312 144.925781 216.503906 142.425781 C 217.691406 139.929688 217.441406 137.183594 217.441406 137.183594 C 217.53125 136.261719 217.5625 135.53125 217.5625 135.53125 C 217.5625 135.53125 218.578125 122.285156 217.816406 119.21875 C 217.054688 116.148438 214.601562 114.371094 211.300781 115.132812 C 208 115.894531 207.40625 115.300781 201.992188 120.71875 C 196.574219 126.136719 191.15625 129.011719 188.363281 130.960938 C 185.574219 132.90625 176.433594 136.882812 173.976562 137.476562 C 172.675781 137.789062 170.003906 138.398438 167.15625 138.859375 C 167.675781 138.390625 168.230469 137.882812 168.753906 137.390625 C 169.714844 136.492188 171.476562 135.144531 173.753906 133.582031 C 173.765625 133.578125 175.683594 132.847656 178.527344 130.492188 C 178.585938 130.453125 178.648438 130.414062 178.710938 130.378906 C 179.128906 130.121094 179.554688 129.863281 179.988281 129.605469 C 180.324219 129.40625 180.6875 129.179688 181.078125 128.929688 C 186.75 125.289062 197.59375 116.65625 202.585938 108.023438 C 207.917969 98.796875 206.308594 90.929688 202.585938 86.1875 C 198.804688 81.378906 192.269531 78.894531 186.390625 80.730469 C 186.011719 80.847656 185.644531 80.980469 185.285156 81.125 C 183.25 79.976562 181.019531 79.183594 178.71875 78.824219 C 178.71875 78.824219 169.152344 78.402344 159.503906 85.085938 C 149.855469 91.773438 146.132812 102.777344 144.863281 109.800781 C 144.3125 112.839844 144.332031 116.464844 144.660156 119.980469 C 142.636719 119.09375 140.269531 118.953125 137.839844 119.703125 C 132.085938 121.480469 129.882812 128.335938 131.828125 133.074219 C 133.777344 137.816406 139.617188 141.960938 145.03125 142.214844 C 150.230469 142.460938 152.15625 140.988281 154.847656 139.597656 C 155.71875 139.898438 156.652344 140.125 157.644531 140.269531 C 159.023438 140.46875 160.777344 140.46875 162.695312 140.332031 C 162.929688 140.761719 163.089844 141.210938 163.179688 141.671875 C 155.242188 150.109375 148.628906 159.96875 144.441406 166.25 C 139.363281 173.867188 134.285156 182.925781 132.589844 192.910156 C 130.898438 202.898438 133.355469 211.53125 135.636719 216.777344 C 137.921875 222.023438 146.046875 233.535156 149.945312 237.765625 C 153.84375 242 162.550781 253.085938 166.613281 259.433594 C 169.066406 263.269531 170.625 268.273438 171.605469 272.515625 C 167.5625 276.007812 166.980469 278.929688 166.359375 281.355469 C 165.511719 284.65625 163.820312 289.816406 166.78125 293.203125 C 169.746094 296.589844 171.777344 296.417969 173.128906 293.796875 C 174.484375 291.171875 174.0625 284.484375 173.722656 280.167969 C 173.570312 278.207031 173.203125 275.613281 172.566406 272.753906 C 175.472656 270.453125 181.753906 267.757812 184.554688 266.796875 C 186.582031 266.105469 191.296875 264.503906 196.9375 263.777344 C 196.816406 264.121094 196.707031 264.476562 196.617188 264.851562 C 195.726562 268.574219 196.109375 268.871094 196.320312 268.195312 C 196.453125 267.769531 196.988281 265.742188 197.890625 263.664062 C 200.945312 263.328125 204.230469 263.269531 207.492188 263.75 C 217.226562 265.1875 221.035156 264.511719 225.605469 261.042969 C 230.175781 257.570312 231.699219 250.96875 231.953125 247.164062 C 232.023438 246.070312 231.886719 244.84375 231.484375 243.582031 C 234.460938 241.921875 237.433594 239.925781 239.1875 238.316406 C 241.726562 235.988281 245.113281 231.886719 244.984375 227.144531 C 244.859375 222.40625 244.351562 222.277344 243.886719 221.261719 Z M 222.328125 205.585938 C 222.820312 203.277344 223.90625 201 225.65625 199.378906 C 226.390625 198.695312 227.972656 197.433594 229.023438 198.136719 C 229.878906 198.710938 229.695312 200.1875 229.605469 201.070312 C 229.371094 203.398438 228.308594 205.523438 226.46875 206.996094 C 225.140625 208.0625 223.546875 208.730469 221.902344 209.160156 C 221.890625 208.210938 222.015625 207.035156 222.328125 205.585938 Z M 193.886719 199.363281 C 194.308594 199.316406 194.917969 199.390625 195.273438 199.566406 C 195.621094 199.742188 195.664062 200.148438 195.945312 200.371094 C 196.476562 200.800781 197.207031 200.207031 197.636719 200.824219 C 197.816406 201.085938 198.035156 201.757812 197.765625 202.027344 C 197.507812 202.285156 197.015625 202.085938 196.726562 201.992188 C 196.199219 201.828125 195.394531 201.300781 194.847656 201.625 C 194.515625 201.820312 194.800781 202.21875 194.648438 202.480469 C 194.429688 202.863281 193.832031 202.261719 193.644531 202.113281 C 193.261719 201.8125 192.945312 201.625 192.539062 201.925781 C 192.511719 201.75 192.492188 201.574219 192.492188 201.394531 C 192.492188 200.480469 192.859375 199.480469 193.886719 199.363281 Z M 190.574219 200.039062 C 190.359375 200.675781 190.148438 201.476562 190.4375 202.136719 C 190.664062 202.644531 191.667969 203.445312 192.296875 203.269531 C 192.359375 203.492188 192.429688 203.714844 192.496094 203.941406 C 192.839844 205.039062 192.5625 206.257812 192.902344 207.347656 C 192.644531 207.664062 192.40625 207.976562 192.257812 208.1875 C 191.878906 208.738281 191.878906 209.582031 191.964844 210.007812 C 192.046875 210.429688 192.046875 210.769531 192.386719 210.472656 C 192.726562 210.175781 192.683594 209.835938 193.824219 209.160156 C 194.96875 208.484375 195.136719 208.484375 196.28125 208.566406 C 197.421875 208.652344 197.464844 208.949219 198.097656 209.035156 C 198.734375 209.117188 199.367188 209.328125 199.367188 209.328125 C 199.367188 209.328125 199.03125 209.625 198.226562 209.710938 C 197.421875 209.792969 196.660156 209.5 196.195312 209.625 C 195.730469 209.753906 195.476562 209.964844 195.136719 210.300781 C 194.796875 210.640625 194.039062 210.597656 193.445312 210.8125 C 192.851562 211.023438 191.964844 211.488281 192.34375 211.742188 C 192.726562 211.996094 193.359375 211.867188 194.25 211.402344 C 195.136719 210.9375 195.347656 210.683594 195.730469 210.683594 C 196.109375 210.683594 196.871094 211.277344 196.957031 211.65625 C 197.042969 212.039062 196.828125 212.292969 196.152344 212.925781 C 195.476562 213.5625 195.222656 214.40625 195.050781 215 C 194.882812 215.59375 195.011719 216.269531 195.011719 216.269531 C 195.011719 216.269531 193.867188 215.085938 192.683594 213.859375 C 191.496094 212.628906 188.832031 210.050781 188.199219 208.019531 C 187.5625 205.988281 187.265625 204.292969 187.648438 202.558594 C 188.027344 200.824219 188.28125 199.46875 189.128906 199.003906 C 189.972656 198.539062 190.609375 198.792969 191.074219 198.707031 C 191.171875 198.691406 191.28125 198.652344 191.386719 198.605469 C 191.035156 199.035156 190.753906 199.503906 190.574219 200.039062 Z M 189.859375 194.285156 C 190.402344 194.226562 190.921875 194.058594 191.476562 194.03125 C 192.234375 193.992188 193.738281 193.757812 194.046875 194.699219 C 194.25 195.3125 193.78125 195.902344 193.414062 196.324219 C 193.148438 196.628906 192.933594 196.964844 192.671875 197.273438 C 192.398438 197.597656 192.078125 197.875 191.777344 198.175781 C 191.515625 198.199219 191.113281 198.222656 190.566406 198.199219 C 189.46875 198.160156 189.128906 198.285156 188.960938 198.410156 C 188.960938 198.410156 189.339844 196.761719 189.550781 195.070312 C 189.582031 194.824219 189.601562 194.574219 189.617188 194.324219 C 189.710938 194.3125 189.800781 194.292969 189.859375 194.285156 Z M 200.5625 169.898438 C 200.199219 170.484375 199.664062 173.71875 198.078125 175.8125 C 197.003906 177.234375 195.054688 178.15625 193.175781 178.503906 C 193.320312 178.128906 193.441406 177.785156 193.53125 177.464844 C 193.910156 176.109375 194.207031 173.613281 193.0625 172.386719 C 193.0625 172.386719 195.136719 172.34375 196.535156 171.667969 C 197.929688 170.992188 198.101562 170.738281 198.394531 170.609375 C 198.691406 170.480469 199.90625 170.597656 200.003906 169.804688 C 200.011719 169.742188 200.003906 169.695312 199.996094 169.644531 C 200.160156 169.761719 200.34375 169.847656 200.5625 169.894531 C 200.5625 169.894531 200.5625 169.894531 200.5625 169.898438 Z M 198.3125 169.890625 C 198.3125 169.890625 196.324219 170.144531 195.136719 169.761719 C 195.136719 169.761719 195.265625 169.46875 196.070312 169 C 196.46875 168.769531 196.683594 168.460938 196.71875 168.023438 C 197.660156 168.109375 198.382812 168.214844 198.734375 168.324219 C 199.042969 168.417969 199.269531 168.910156 199.640625 169.324219 C 199.347656 169.308594 198.964844 169.457031 198.777344 169.550781 C 198.4375 169.71875 198.3125 169.890625 198.3125 169.890625 Z M 212.359375 148.730469 C 212.359375 148.730469 212.023438 149.28125 211.515625 149.535156 C 211.007812 149.789062 209.820312 150.339844 208.296875 150.210938 C 206.773438 150.085938 205.96875 149.917969 205.96875 149.917969 C 205.96875 149.917969 205.96875 149.917969 206.183594 149.746094 C 206.394531 149.578125 206.902344 149.621094 207.707031 149.535156 C 208.511719 149.449219 209.777344 149.578125 211.132812 148.859375 C 211.632812 148.59375 212.105469 148.226562 212.507812 147.867188 Z M 214.644531 144.457031 C 213.925781 145.304688 212.148438 146.785156 210.582031 147.757812 C 209.015625 148.730469 207.578125 148.6875 206.773438 148.816406 C 205.96875 148.941406 205.546875 149.15625 204.914062 149.746094 C 204.277344 150.339844 204.277344 151.128906 204.277344 151.128906 C 204.277344 151.128906 204.574219 150.890625 204.953125 150.636719 C 205.335938 150.382812 205.714844 150.464844 206.308594 150.507812 C 206.902344 150.550781 207.875 150.761719 209.3125 150.804688 C 210.753906 150.847656 212.277344 149.832031 212.277344 149.832031 C 212.277344 149.832031 211.34375 152.199219 210.582031 154.273438 C 209.820312 156.347656 209.566406 156.347656 208.550781 157.492188 C 207.535156 158.632812 206.4375 160.367188 205.25 162.019531 C 204.453125 163.132812 204.402344 164.132812 204.457031 164.664062 C 204.121094 162.886719 203.378906 159.625 203.347656 158.675781 C 203.304688 157.492188 203.175781 153.554688 203.726562 151.3125 C 204.277344 149.070312 204.996094 147.757812 206.691406 146.785156 C 208.382812 145.8125 210.328125 144.921875 212.148438 143.992188 C 213.96875 143.0625 215.136719 142.3125 215.617188 141.75 C 215.746094 141.597656 215.878906 141.382812 216.003906 141.152344 C 216.082031 141.191406 216.175781 141.203125 216.277344 141.164062 C 215.757812 142.488281 215.070312 143.957031 214.644531 144.457031 Z M 216.296875 138.066406 L 215.964844 139.625 C 215.613281 140.421875 215.046875 141.292969 214.136719 141.960938 C 211.894531 143.609375 209.355469 143.992188 207.199219 145.347656 C 205.039062 146.699219 203.898438 148.054688 203.558594 149.324219 C 203.21875 150.59375 202.5 154.910156 202.710938 156.984375 C 202.921875 159.054688 203.175781 161.425781 203.601562 163.585938 C 204.023438 165.742188 204.488281 166.96875 203.515625 168.238281 C 202.824219 169.140625 202.046875 169.378906 201.320312 169.351562 C 201.320312 169.351562 201.316406 169.351562 201.316406 169.351562 C 201.023438 169.339844 200.738281 169.285156 200.46875 169.210938 C 199.539062 168.957031 199.835938 167.605469 198.480469 167.5625 C 197.902344 167.542969 197.289062 167.535156 196.6875 167.507812 C 196.632812 167.15625 196.515625 166.746094 196.320312 166.25 C 195.730469 164.726562 194.25 163.839844 193.105469 163.878906 C 191.964844 163.921875 191.75 164.640625 192.003906 165.488281 C 192.257812 166.335938 193.128906 167.8125 194.925781 167.902344 C 195.4375 167.925781 195.921875 167.957031 196.367188 167.992188 C 196.390625 168.164062 196.40625 168.28125 196.40625 168.28125 C 196.40625 168.28125 196.238281 168.746094 195.390625 169.085938 C 194.542969 169.425781 194.460938 169.085938 193.613281 169.042969 C 192.765625 169 192.683594 169.296875 191.285156 169.128906 C 189.890625 168.960938 188.367188 168.28125 187.605469 168.027344 C 186.84375 167.773438 186.292969 168.324219 187.902344 169.128906 C 189.507812 169.933594 190.183594 169.933594 191.414062 170.058594 C 192.640625 170.1875 193.613281 170.523438 194.332031 170.652344 C 195.050781 170.777344 195.09375 170.695312 195.222656 170.652344 C 195.347656 170.609375 197.421875 170.71875 197.421875 170.71875 C 197.421875 170.71875 196.195312 171.371094 194.96875 171.667969 C 193.738281 171.964844 192.808594 171.835938 192.132812 171.667969 C 191.457031 171.496094 191.242188 171.710938 191.664062 172.089844 C 192.089844 172.472656 193.191406 173.105469 193.445312 174.332031 C 193.699219 175.558594 193.484375 176.703125 193.148438 177.550781 C 192.925781 178.101562 192.671875 178.4375 192.519531 178.601562 C 191.859375 178.679688 191.222656 178.683594 190.652344 178.609375 C 188.292969 178.296875 185.066406 175.496094 183.796875 174.101562 C 182.585938 172.773438 180.625 168.972656 176.609375 166.476562 C 175.890625 165.261719 174.632812 163.0625 174.105469 161.257812 C 173.511719 159.226562 173.976562 156.6875 174.316406 155.585938 C 174.65625 154.488281 176.601562 152.371094 178.292969 151.480469 C 179.988281 150.59375 182.527344 149.789062 184.21875 149.113281 C 184.425781 149.027344 184.640625 148.960938 184.851562 148.890625 C 185.320312 148.953125 186.300781 149.082031 186.460938 149.113281 C 186.671875 149.15625 188.449219 149.664062 190.144531 150.210938 C 191.835938 150.761719 194.417969 150.59375 194.417969 150.59375 C 193.8125 151.863281 192.457031 152.476562 191.117188 152.667969 C 189.929688 152.835938 187.902344 152.75 185.785156 152.074219 C 183.667969 151.398438 182.570312 151.226562 182.484375 151.480469 C 182.398438 151.734375 183.246094 152.496094 184.34375 153.300781 C 185.445312 154.105469 187.011719 154.910156 189.71875 154.867188 C 192.429688 154.824219 193.699219 153.300781 193.699219 153.300781 C 193.484375 153.21875 191.964844 153.894531 190.183594 153.9375 C 188.875 153.96875 187.554688 153.859375 186.296875 153.476562 C 185.710938 153.296875 185.285156 153.066406 184.796875 152.726562 C 184.320312 152.398438 183.730469 152.234375 183.398438 151.722656 C 183.949219 151.675781 184.5 152.101562 184.992188 152.308594 C 185.460938 152.503906 185.890625 152.691406 186.394531 152.808594 C 187.578125 153.082031 188.792969 153.371094 190.015625 153.300781 C 191.539062 153.21875 193.148438 152.667969 193.824219 151.988281 C 194.5 151.3125 194.96875 150.550781 194.96875 150.550781 C 195.277344 150.515625 196.335938 150.34375 195.867188 149.820312 C 195.625 149.550781 195.164062 149.71875 194.875 149.792969 C 194.464844 149.890625 194.152344 149.882812 193.722656 149.835938 C 192.777344 149.730469 191.847656 149.542969 190.902344 149.449219 C 189.59375 149.324219 187.390625 148.519531 186.292969 148.476562 C 186.105469 148.472656 185.941406 148.480469 185.785156 148.496094 C 186.421875 148.144531 187.078125 147.773438 187.730469 147.417969 C 188.402344 147.054688 189.046875 146.617188 189.628906 146.121094 C 190.042969 145.765625 190.507812 145.476562 190.941406 145.144531 C 191.464844 144.746094 192.0625 144.03125 192.410156 143.472656 C 192.933594 142.636719 193.480469 141.773438 193.886719 140.871094 C 194.382812 139.765625 194.695312 138.585938 195.050781 137.433594 C 195.898438 134.683594 196.109375 131.761719 196.660156 130.28125 C 197.097656 129.109375 198.121094 128.085938 198.964844 127.199219 C 199.398438 126.738281 199.800781 126.285156 200.195312 125.800781 C 200.621094 125.28125 201.207031 124.976562 201.757812 124.625 C 202.441406 124.1875 203.027344 123.65625 203.773438 123.316406 C 205.25 122.640625 206.882812 122.625 208.421875 123.085938 C 212.359375 124.273438 214.558594 127.699219 215.320312 128.96875 C 216.070312 130.222656 216.558594 134.550781 216.570312 134.667969 C 216.488281 135.800781 216.402344 136.933594 216.296875 138.066406 Z M 196.277344 167.488281 C 195.617188 167.449219 194.984375 167.386719 194.460938 167.265625 C 193.359375 167.011719 191.835938 165.023438 192.726562 164.304688 C 192.726562 164.304688 194.164062 164.09375 194.882812 164.726562 C 195.605469 165.363281 195.855469 166.207031 196.070312 166.714844 C 196.152344 166.917969 196.222656 167.210938 196.277344 167.488281 Z M 178.550781 137.050781 C 183.121094 135.273438 191.921875 130.28125 195.5625 127.488281 C 199.199219 124.695312 207.070312 116.488281 209.523438 116.0625 C 211.332031 115.75 213.515625 115.691406 215.132812 116.691406 C 216.632812 117.617188 217.019531 119.429688 217.179688 121.050781 C 217.382812 123.109375 217.433594 125.222656 217.183594 127.300781 C 217.035156 128.535156 216.933594 129.738281 216.839844 130.945312 C 216.261719 129.40625 214.960938 126.414062 213.039062 124.738281 C 210.371094 122.410156 208.171875 122.070312 205.71875 122.15625 C 202.890625 122.253906 200.769531 124.527344 198.960938 126.414062 C 198.445312 126.953125 197.921875 127.398438 197.429688 127.964844 C 196.839844 128.648438 196.402344 129.425781 196.097656 130.269531 C 195.292969 132.484375 195.050781 134.90625 194.460938 137.183594 C 193.109375 142.4375 190.570312 144.882812 188.453125 146.234375 C 186.335938 147.589844 181.511719 149.15625 178.59375 150.464844 C 175.671875 151.777344 173.683594 153.9375 173.175781 158 C 172.824219 160.8125 174.21875 163.910156 175.164062 165.617188 C 171.273438 163.207031 169.285156 160.175781 167.738281 157.976562 C 166.085938 155.628906 164.820312 151.882812 164.667969 149.535156 C 164.515625 147.1875 164.667969 141.191406 164.667969 141.191406 C 164.886719 140.921875 165.007812 140.777344 165.007812 140.777344 C 165.007812 140.777344 165.359375 140.46875 165.890625 139.996094 C 170.679688 139.363281 175.785156 138.128906 178.550781 137.050781 Z M 163.785156 141.03125 C 163.707031 140.78125 163.609375 140.523438 163.496094 140.265625 C 163.871094 140.230469 164.253906 140.195312 164.636719 140.152344 C 164.351562 140.441406 164.070312 140.734375 163.785156 141.03125 Z M 188.707031 80.769531 C 195.054688 79.671875 202.078125 84.492188 204.363281 90.671875 C 206.648438 96.851562 204.109375 103.199219 201.65625 107.769531 C 199.199219 112.339844 192.175781 119.195312 186.503906 123.765625 C 185.257812 124.769531 183.6875 125.949219 181.992188 127.175781 C 184.324219 124.644531 186.921875 121.183594 189.46875 116.484375 C 191.683594 112.402344 194.21875 108.457031 194.796875 103.773438 C 195.089844 101.402344 195.046875 99.019531 194.8125 96.648438 C 194.398438 92.429688 192.929688 87.972656 190.019531 84.84375 C 188.824219 83.554688 187.445312 82.4375 185.945312 81.515625 C 186.792969 81.203125 187.707031 80.941406 188.707031 80.769531 Z M 148.925781 141.199219 C 145.035156 142.214844 136.042969 139.414062 133.609375 134.851562 C 131.175781 130.289062 130.984375 123.425781 138.601562 120.464844 C 140.765625 119.621094 142.910156 119.828125 144.742188 120.800781 C 145.203125 125.101562 146.109375 129.148438 146.980469 131.632812 C 147.46875 133.023438 148.136719 134.277344 148.972656 135.382812 C 148.792969 135.867188 148.59375 136.34375 148.417969 136.796875 C 148.417969 136.796875 148.785156 136.421875 149.21875 135.691406 C 150.429688 137.1875 151.972656 138.378906 153.824219 139.195312 C 152.277344 139.941406 150.679688 140.742188 148.925781 141.199219 Z M 145.597656 121.332031 C 146.390625 121.890625 147.109375 122.597656 147.722656 123.4375 C 149.902344 126.4375 150.140625 130.046875 149.496094 133.628906 C 149.457031 133.84375 149.402344 134.0625 149.34375 134.28125 C 148.726562 133.386719 148.207031 132.347656 147.828125 131.128906 C 146.972656 128.382812 146.089844 125.035156 145.597656 121.332031 Z M 160.015625 139.421875 C 158.925781 139.34375 157.71875 139.1875 156.488281 138.882812 C 158.839844 138.085938 161.015625 138.347656 162.054688 139.429688 C 161.324219 139.460938 160.632812 139.464844 160.015625 139.421875 Z M 163.015625 139.371094 C 162.296875 138.265625 161.175781 137.351562 159.507812 137.390625 C 158.046875 137.425781 156.65625 137.90625 155.257812 138.527344 C 153.210938 137.84375 151.203125 136.691406 149.695312 134.757812 C 150.378906 133.199219 150.960938 130.753906 150.28125 127.402344 C 149.621094 124.152344 147.84375 121.722656 145.480469 120.386719 C 144.933594 115.53125 145.101562 110.109375 146.894531 104.636719 C 150.199219 94.566406 157.8125 84.242188 170.085938 81.195312 C 177.824219 79.273438 181.726562 79.941406 184.421875 81.507812 C 179.210938 84.011719 176.234375 89.367188 177.449219 95.328125 C 178.378906 99.898438 184.050781 100.488281 184.050781 100.488281 C 182.273438 100.152344 178.902344 98.09375 178.550781 96.34375 C 178.195312 94.59375 177.875 91.09375 178.464844 88.640625 C 178.929688 86.714844 181.070312 83.652344 185.027344 81.886719 C 186.3125 82.746094 187.339844 83.800781 188.453125 84.832031 C 190.425781 86.660156 191.765625 89.089844 192.703125 91.585938 C 193.21875 92.96875 193.34375 94.507812 193.625 95.949219 C 194.164062 98.726562 193.9375 101.375 193.769531 104.167969 C 193.621094 106.644531 192.441406 109.007812 191.46875 111.289062 C 190.753906 112.964844 189.957031 114.601562 189.078125 116.191406 C 187.285156 119.4375 185.171875 122.523438 182.699219 125.289062 C 181.171875 126.992188 179.242188 128.816406 177.5625 130.320312 C 172.800781 133.636719 168.394531 136.542969 168.394531 136.542969 C 167.484375 137.363281 166.59375 138.210938 165.710938 139.078125 C 164.792969 139.207031 163.886719 139.304688 163.015625 139.371094 Z M 163.269531 142.882812 C 163.21875 144.726562 162.367188 146.652344 161.441406 148.144531 C 159.714844 150.933594 156.441406 152.152344 154.050781 154.363281 C 157.367188 150.113281 161.128906 145.492188 163.269531 142.882812 Z M 172.878906 279.320312 C 173.371094 282.625 173.429688 286.050781 173.230469 289.378906 C 173.152344 290.695312 173.324219 292.480469 172.359375 293.488281 C 171.34375 294.554688 169.765625 294.527344 168.648438 293.710938 C 165.988281 291.765625 165.855469 289.054688 166.363281 284.316406 C 166.871094 279.574219 169.492188 276.191406 171.523438 273.734375 C 171.609375 273.632812 171.707031 273.527344 171.8125 273.421875 C 172.335938 275.824219 172.671875 277.921875 172.878906 279.320312 Z M 230.238281 251.222656 C 229.542969 254.210938 227.980469 257.355469 225.839844 259.601562 C 221.972656 263.65625 215 263.746094 209.789062 263.382812 C 207.414062 263.21875 205.046875 262.816406 202.667969 262.734375 C 201.515625 262.691406 200.023438 262.695312 198.292969 262.796875 C 198.746094 261.863281 199.273438 260.960938 199.878906 260.238281 C 201.992188 257.699219 205.378906 255.074219 212.105469 252.113281 C 218.835938 249.148438 223.640625 247.320312 227.59375 245.554688 C 228.503906 245.148438 229.472656 244.667969 230.457031 244.140625 C 231.097656 246.445312 230.8125 248.75 230.238281 251.222656 Z M 236.988281 239.121094 C 235.671875 240.1875 233.605469 241.605469 231.257812 242.933594 C 230.109375 239.984375 227.480469 236.914062 222.644531 234.890625 C 215.363281 231.84375 207.238281 231.757812 199.960938 235.226562 C 199.171875 235.605469 198.375 236.007812 197.589844 236.433594 C 199.453125 231.527344 198.121094 228.175781 197.082031 225.324219 C 195.730469 221.601562 189.636719 213.730469 182.15625 216.523438 C 174.671875 219.316406 174.0625 225.664062 174.488281 232.179688 C 174.910156 238.699219 177.789062 246.992188 178.804688 249.617188 C 179.816406 252.238281 182.527344 256.300781 182.527344 256.300781 C 182.527344 256.300781 179.058594 247.921875 177.363281 242.421875 C 175.671875 236.921875 175.503906 232.097656 175.671875 226.765625 C 175.84375 221.433594 179.902344 218.046875 183.289062 217.539062 C 186.675781 217.03125 190.3125 218.214844 194.121094 222.617188 C 197.929688 227.019531 198.183594 231.335938 196.238281 236.160156 C 196.050781 236.625 195.867188 237.089844 195.675781 237.5625 C 194.398438 238.382812 193.195312 239.308594 192.160156 240.394531 C 191.863281 240.710938 191.371094 241.140625 191.214844 241.566406 C 190.78125 242.734375 191.558594 244.023438 192.828125 243.519531 C 193.660156 243.1875 194.394531 242.128906 194.882812 241.40625 C 195.683594 240.257812 196.320312 239.179688 196.828125 238.160156 C 197.207031 237.964844 197.597656 237.753906 198.015625 237.511719 C 200.214844 236.246094 205.207031 232.6875 213.078125 233.621094 C 220.949219 234.550781 227.214844 237.683594 229.585938 242 C 229.859375 242.5 230.074219 242.992188 230.25 243.488281 C 229.359375 243.964844 228.4375 244.421875 227.511719 244.835938 C 223.703125 246.527344 216.890625 249.195312 214.390625 250.25 C 211.894531 251.308594 204.785156 254.738281 202.460938 256.769531 C 200.574219 258.414062 198.5 260.25 197.304688 262.863281 C 191.847656 263.28125 184.386719 264.667969 177.535156 268.488281 C 175.410156 269.675781 173.722656 270.804688 172.367188 271.882812 C 171.605469 268.691406 170.507812 265.226562 168.988281 261.972656 C 165.941406 255.457031 160.015625 247.839844 154.007812 241.238281 C 147.996094 234.636719 140.632812 222.957031 138.941406 219.996094 C 137.25 217.03125 131.324219 206.453125 133.949219 191.894531 C 136.570312 177.339844 144.78125 167.519531 148.503906 161.851562 C 149.539062 160.273438 151.277344 157.945312 153.242188 155.40625 C 151.96875 157.496094 150.546875 161.902344 152.566406 166.082031 C 153.710938 168.449219 155.8125 169.832031 158.238281 170.652344 C 160.410156 171.386719 162.371094 171.816406 164.21875 173.234375 C 166.015625 174.613281 167.25 176.363281 167.464844 178.691406 C 167.71875 181.484375 168.222656 183.347656 166.703125 184.871094 C 165.179688 186.394531 164.417969 187.070312 164.417969 187.070312 C 164.417969 187.070312 166.011719 186.734375 167.753906 184.277344 C 169.402344 181.957031 168.78125 178.234375 167.601562 175.84375 C 166.121094 172.84375 163.742188 171.070312 160.558594 169.976562 C 159.140625 169.492188 157.664062 169.371094 156.335938 168.613281 C 153.609375 167.0625 152.746094 163.945312 152.484375 161.003906 C 152.484375 161.003906 152.398438 156.601562 155.699219 154.148438 C 157.554688 152.769531 159.945312 151.503906 161.414062 149.675781 C 162.96875 147.746094 163.910156 145.289062 164.078125 142.808594 C 164.089844 142.601562 164.070312 142.3125 164.015625 141.980469 C 164.070312 141.910156 164.132812 141.839844 164.183594 141.777344 C 164.183594 141.777344 163.675781 146.425781 164.183594 150.234375 C 164.691406 154.042969 166.46875 157.40625 168.308594 160.316406 C 170.148438 163.226562 173.007812 165.339844 175.292969 166.609375 C 175.5625 166.761719 175.847656 166.953125 176.136719 167.167969 C 176.828125 168.191406 179.40625 172.234375 180.160156 175.351562 C 181.003906 178.863281 180.03125 181.0625 177.746094 183.644531 C 175.460938 186.226562 171.527344 188.976562 169.535156 191.515625 C 167.546875 194.054688 167.125 196.59375 167.589844 199.640625 C 168.054688 202.6875 170.550781 205.648438 171.484375 206.324219 C 172.414062 207.003906 174.488281 207.976562 174.488281 207.976562 L 173.429688 207.046875 C 173.429688 207.046875 170.933594 205.394531 169.535156 202.957031 C 168.140625 200.519531 168.140625 199.003906 168.140625 196.847656 C 168.140625 194.6875 170.085938 191.683594 171.398438 190.5 C 172.710938 189.3125 177.152344 185.589844 178.296875 184.320312 C 179.4375 183.050781 181.003906 181.316406 181.257812 178.398438 C 181.511719 175.476562 179.988281 172.597656 179.3125 171.160156 C 178.980469 170.457031 178.539062 169.671875 178.097656 168.929688 C 179.65625 170.515625 181.148438 172.40625 182.003906 173.464844 C 183.382812 175.179688 187.160156 178.796875 189.890625 179.304688 C 190.609375 179.441406 191.3125 179.46875 191.988281 179.421875 C 191.414062 180.4375 190.367188 182.40625 189.890625 184.109375 C 189.214844 186.519531 188.707031 189.90625 188.75 191.554688 C 188.792969 193.207031 188.832031 194.011719 188.578125 195.957031 C 188.324219 197.902344 187.5625 199.765625 187.140625 201.246094 C 186.71875 202.726562 186.589844 205.816406 187.269531 207.425781 C 187.945312 209.035156 188.15625 210.050781 191.074219 213.054688 C 193.996094 216.058594 194.628906 216.480469 195.394531 217.496094 C 196.152344 218.511719 196.195312 219.65625 198.398438 220.839844 C 200.597656 222.023438 202.585938 223.253906 205.378906 223.84375 C 208.171875 224.4375 211.132812 224.140625 213.082031 223.167969 C 215.027344 222.195312 218.710938 219.652344 220.613281 218.34375 C 222.519531 217.03125 225.691406 215.085938 228.273438 214.324219 C 230.855469 213.5625 233.691406 213.351562 236.566406 214.449219 C 239.445312 215.550781 242.789062 220.164062 243.84375 222.449219 C 244.902344 224.734375 244.101562 229.769531 243.210938 232.054688 C 242.320312 234.339844 238.976562 237.511719 236.988281 239.121094 Z M 195.058594 239.042969 C 194.703125 239.855469 194.328125 240.65625 193.890625 241.417969 C 193.710938 241.730469 193.414062 242.410156 193.09375 242.605469 C 192.363281 243.046875 191.628906 242.449219 191.90625 241.621094 C 192.136719 240.925781 193.117188 240.378906 193.617188 239.878906 C 193.855469 239.640625 194.363281 239.382812 195.058594 239.042969 Z M 203.472656 197.523438 C 204.808594 197.332031 206.011719 196.570312 207.347656 195.9375 C 207.957031 195.644531 208.503906 195.300781 209.160156 195.113281 C 209.507812 195.011719 210.300781 195.054688 210.511719 194.742188 C 207.761719 194.050781 205.96875 196.78125 203.347656 196.632812 C 202.203125 196.570312 199.410156 195.9375 200.238281 196.953125 C 200.238281 196.953125 202.140625 197.714844 203.472656 197.523438 Z M 203.472656 197.523438 " fill-opacity="1" fill-rule="nonzero"/></g><g fill="#f4f4f4" fill-opacity="1"><g transform="translate(290.75436, 125.268426)"><g><path d="M 5.515625 0.171875 C 4.816406 0.171875 4.203125 0.03125 3.671875 -0.25 C 3.148438 -0.53125 2.75 -0.914062 2.46875 -1.40625 C 2.1875 -1.90625 2.046875 -2.46875 2.046875 -3.09375 C 2.046875 -3.71875 2.1875 -4.273438 2.46875 -4.765625 C 2.75 -5.265625 3.148438 -5.65625 3.671875 -5.9375 C 4.203125 -6.226562 4.816406 -6.375 5.515625 -6.375 C 6.210938 -6.375 6.820312 -6.234375 7.34375 -5.953125 C 7.875 -5.671875 8.28125 -5.28125 8.5625 -4.78125 C 8.84375 -4.289062 8.984375 -3.734375 8.984375 -3.109375 C 8.984375 -2.160156 8.664062 -1.375 8.03125 -0.75 C 7.40625 -0.132812 6.566406 0.171875 5.515625 0.171875 Z M 5.515625 0.171875 "/></g></g></g></svg>